# This file uses centimeters as units for non-parametric coordinates.

g default
v -1.056120 1.176944 10.446639
v 1.214862 1.176944 10.446684
v -1.056121 1.423364 10.479837
v 1.214862 1.423364 10.479882
v -1.056099 1.576633 9.342171
v 1.214884 1.576633 9.342216
v -1.056098 1.330213 9.308973
v 1.214885 1.330213 9.309018
vt 0.409449 0.716830
vt 0.409449 0.791117
vt 0.335162 0.791117
vt 0.335162 0.716830
vt 0.260874 0.791117
vt 0.260874 0.716830
vt 0.186587 0.791117
vt 0.186587 0.716830
vt 0.112300 0.791117
vt 0.112300 0.716830
vt 0.409449 0.865405
vt 0.335162 0.865405
vt 0.409449 0.642543
vt 0.335162 0.642543
vn -0.000020 -0.133516 0.991047
vn -0.000020 -0.133516 0.991047
vn -0.000020 -0.133516 0.991047
vn -0.000020 -0.133516 0.991047
vn -0.000003 0.991047 0.133516
vn -0.000003 0.991047 0.133516
vn -0.000003 0.991047 0.133516
vn -0.000003 0.991047 0.133516
vn 0.000020 0.133516 -0.991047
vn 0.000020 0.133516 -0.991047
vn 0.000020 0.133516 -0.991047
vn 0.000020 0.133516 -0.991047
vn 0.000003 -0.991047 -0.133516
vn 0.000003 -0.991047 -0.133516
vn 0.000003 -0.991047 -0.133516
vn 0.000003 -0.991047 -0.133516
vn 1.000000 -0.000000 0.000020
vn 1.000000 -0.000000 0.000020
vn 1.000000 -0.000000 0.000020
vn 1.000000 -0.000000 0.000020
vn -1.000000 0.000000 -0.000020
vn -1.000000 0.000000 -0.000020
vn -1.000000 0.000000 -0.000020
vn -1.000000 0.000000 -0.000020
s off
g polySurface60 stairs
f 1/1/1 2/2/2 4/3/3 3/4/4
f 3/4/5 4/3/6 6/5/7 5/6/8
f 5/6/9 6/5/10 8/7/11 7/8/12
f 7/8/13 8/7/14 2/9/15 1/10/16
f 2/2/17 8/11/18 6/12/19 4/3/20
f 7/13/21 1/1/22 3/4/23 5/14/24
g default
v -1.060965 0.678163 11.157054
v 1.210018 0.678163 11.157099
v -1.060966 0.888405 11.185378
v 1.210017 0.888405 11.185423
v -1.060946 1.023985 10.179009
v 1.210037 1.023985 10.179054
v -1.060945 0.813743 10.150685
v 1.210038 0.813743 10.150730
vt 0.277449 0.861031
vt 0.277449 0.930271
vt 0.208209 0.930271
vt 0.208209 0.861031
vt 0.138969 0.930271
vt 0.138969 0.861031
vt 0.069729 0.930271
vt 0.069729 0.861031
vt 0.000488 0.930271
vt 0.000488 0.861031
vt 0.277449 0.999512
vt 0.208209 0.999512
vt 0.277449 0.791791
vt 0.208209 0.791791
vn -0.000020 -0.133516 0.991047
vn -0.000020 -0.133516 0.991047
vn -0.000020 -0.133516 0.991047
vn -0.000020 -0.133516 0.991047
vn -0.000003 0.991047 0.133516
vn -0.000003 0.991047 0.133516
vn -0.000003 0.991047 0.133516
vn -0.000003 0.991047 0.133516
vn 0.000020 0.133516 -0.991047
vn 0.000020 0.133516 -0.991047
vn 0.000020 0.133516 -0.991047
vn 0.000020 0.133516 -0.991047
vn 0.000003 -0.991047 -0.133516
vn 0.000003 -0.991047 -0.133516
vn 0.000003 -0.991047 -0.133516
vn 0.000003 -0.991047 -0.133516
vn 1.000000 -0.000000 0.000020
vn 1.000000 -0.000000 0.000020
vn 1.000000 -0.000000 0.000020
vn 1.000000 -0.000000 0.000020
vn -1.000000 0.000000 -0.000020
vn -1.000000 0.000000 -0.000020
vn -1.000000 0.000000 -0.000020
vn -1.000000 0.000000 -0.000020
s off
g stairs polySurface59
f 9/15/25 10/16/26 12/17/27 11/18/28
f 11/18/29 12/17/30 14/19/31 13/20/32
f 13/20/33 14/19/34 16/21/35 15/22/36
f 15/22/37 16/21/38 10/23/39 9/24/40
f 10/16/41 16/25/42 14/26/43 12/17/44
f 15/27/45 9/15/46 11/18/47 13/28/48
g default
v -1.395044 0.033689 11.015218
v -1.059671 0.033689 11.015225
v -1.395054 0.784623 11.532396
v -1.059681 0.784623 11.532402
v -1.395001 2.624747 8.860560
v -1.059628 2.624747 8.860566
v -1.394991 1.873813 8.343382
v -1.059618 1.873813 8.343389
vt 0.333882 0.549460
vt 0.333882 0.632808
vt 0.250534 0.632808
vt 0.250534 0.549460
vt 0.167185 0.632808
vt 0.167185 0.549460
vt 0.083837 0.632808
vt 0.083837 0.549460
vt 0.000488 0.632808
vt 0.000488 0.549460
vt 0.333882 0.716156
vt 0.250534 0.716156
vt 0.333882 0.466111
vt 0.250534 0.466111
vn -0.000016 -0.567207 0.823575
vn -0.000016 -0.567207 0.823575
vn -0.000016 -0.567207 0.823575
vn -0.000016 -0.567207 0.823575
vn -0.000011 0.823576 0.567206
vn -0.000011 0.823576 0.567206
vn -0.000011 0.823576 0.567206
vn -0.000011 0.823576 0.567206
vn 0.000016 0.567206 -0.823576
vn 0.000016 0.567206 -0.823576
vn 0.000016 0.567206 -0.823576
vn 0.000016 0.567206 -0.823576
vn 0.000011 -0.823576 -0.567206
vn 0.000011 -0.823576 -0.567206
vn 0.000011 -0.823576 -0.567206
vn 0.000011 -0.823576 -0.567206
vn 1.000000 -0.000000 0.000020
vn 1.000000 -0.000000 0.000020
vn 1.000000 -0.000000 0.000020
vn 1.000000 -0.000000 0.000020
vn -1.000000 -0.000000 -0.000020
vn -1.000000 -0.000000 -0.000020
vn -1.000000 -0.000000 -0.000020
vn -1.000000 -0.000000 -0.000020
s off
g stairs polySurface62
f 17/29/49 18/30/50 20/31/51 19/32/52
f 19/32/53 20/31/54 22/33/55 21/34/56
f 21/34/57 22/33/58 24/35/59 23/36/60
f 23/36/61 24/35/62 18/37/63 17/38/64
f 18/30/65 24/39/66 22/40/67 20/31/68
f 23/41/69 17/29/70 19/32/71 21/42/72
g default
v 1.211864 0.033689 11.015269
v 1.547237 0.033689 11.015276
v 1.211853 0.784623 11.532447
v 1.547227 0.784623 11.532454
v 1.211906 2.624747 8.860611
v 1.547279 2.624747 8.860618
v 1.211916 1.873813 8.343434
v 1.547290 1.873813 8.343440
vt 0.667969 0.548882
vt 0.667969 0.632231
vt 0.584621 0.632231
vt 0.584621 0.548882
vt 0.501273 0.632231
vt 0.501273 0.548882
vt 0.417924 0.632231
vt 0.417924 0.548882
vt 0.334576 0.632231
vt 0.334576 0.548882
vt 0.667969 0.715579
vt 0.584621 0.715579
vt 0.667969 0.465534
vt 0.584621 0.465534
vn -0.000016 -0.567207 0.823575
vn -0.000016 -0.567207 0.823575
vn -0.000016 -0.567207 0.823575
vn -0.000016 -0.567207 0.823575
vn -0.000011 0.823576 0.567206
vn -0.000011 0.823576 0.567206
vn -0.000011 0.823576 0.567206
vn -0.000011 0.823576 0.567206
vn 0.000016 0.567206 -0.823576
vn 0.000016 0.567206 -0.823576
vn 0.000016 0.567206 -0.823576
vn 0.000016 0.567206 -0.823576
vn 0.000011 -0.823576 -0.567206
vn 0.000011 -0.823576 -0.567206
vn 0.000011 -0.823576 -0.567206
vn 0.000011 -0.823576 -0.567206
vn 1.000000 -0.000000 0.000020
vn 1.000000 -0.000000 0.000020
vn 1.000000 -0.000000 0.000020
vn 1.000000 -0.000000 0.000020
vn -1.000000 -0.000000 -0.000020
vn -1.000000 -0.000000 -0.000020
vn -1.000000 -0.000000 -0.000020
vn -1.000000 -0.000000 -0.000020
s off
g stairs polySurface326
f 25/43/73 26/44/74 28/45/75 27/46/76
f 27/46/77 28/45/78 30/47/79 29/48/80
f 29/48/81 30/47/82 32/49/83 31/50/84
f 31/50/85 32/49/86 26/51/87 25/52/88
f 26/44/89 32/53/90 30/54/91 28/45/92
f 31/55/93 25/43/94 27/46/95 29/56/96
g default
v -1.050381 1.789758 9.828302
v 1.204496 1.789758 9.828346
v -1.050382 2.023436 9.859783
v 1.204495 2.023436 9.859828
v -1.050357 2.193790 8.595302
v 1.204520 2.193790 8.595347
v -1.050356 1.960111 8.563821
v 1.204521 1.960111 8.563865
vt 0.746112 0.716253
vt 0.746112 0.793205
vt 0.669160 0.793205
vt 0.669160 0.716253
vt 0.592208 0.793205
vt 0.592208 0.716253
vt 0.515256 0.793205
vt 0.515256 0.716253
vt 0.438304 0.793205
vt 0.438304 0.716253
vt 0.746112 0.870157
vt 0.669160 0.870157
vt 0.746112 0.639301
vt 0.669160 0.639301
vn -0.000020 -0.133516 0.991047
vn -0.000020 -0.133516 0.991047
vn -0.000020 -0.133516 0.991047
vn -0.000020 -0.133516 0.991047
vn -0.000003 0.991047 0.133516
vn -0.000003 0.991047 0.133516
vn -0.000003 0.991047 0.133516
vn -0.000003 0.991047 0.133516
vn 0.000020 0.133516 -0.991047
vn 0.000020 0.133516 -0.991047
vn 0.000020 0.133516 -0.991047
vn 0.000020 0.133516 -0.991047
vn 0.000003 -0.991047 -0.133516
vn 0.000003 -0.991047 -0.133516
vn 0.000003 -0.991047 -0.133516
vn 0.000003 -0.991047 -0.133516
vn 1.000000 -0.000000 0.000020
vn 1.000000 -0.000000 0.000020
vn 1.000000 -0.000000 0.000020
vn 1.000000 -0.000000 0.000020
vn -1.000000 0.000000 -0.000020
vn -1.000000 0.000000 -0.000020
vn -1.000000 0.000000 -0.000020
vn -1.000000 0.000000 -0.000020
s off
g stairs polySurface330
f 33/57/97 34/58/98 36/59/99 35/60/100
f 35/60/101 36/59/102 38/61/103 37/62/104
f 37/62/105 38/61/106 40/63/107 39/64/108
f 39/64/109 40/63/110 34/65/111 33/66/112
f 34/58/113 40/67/114 38/68/115 36/59/116
f 39/69/117 33/57/118 35/60/119 37/70/120
g default
v 4.078691 1.841453 8.803144
v 4.078691 1.841453 7.345094
v 4.078691 2.439000 8.803144
v 4.078691 2.439000 7.345094
v -4.189042 2.439000 8.803144
v -4.189042 2.439000 7.345094
v -4.189042 1.841453 8.803144
v -4.189042 1.841453 7.345094
vt 0.806313 0.129347
vt 0.806313 0.283163
vt 0.652497 0.283163
vt 0.652497 0.129347
vt 0.651394 0.129347
vt 0.651394 0.283163
vt 0.497578 0.283163
vt 0.497578 0.129347
vt 0.987067 0.706478
vt 0.987067 0.946749
vt 0.746796 0.946749
vt 0.746796 0.706478
vt 0.746796 0.465534
vt 0.987067 0.465534
vt 0.987067 0.705805
vt 0.746796 0.705805
vt 0.998641 0.000488
vt 0.998641 0.065082
vt 0.934047 0.065082
vt 0.934047 0.000488
vt 0.934047 0.065756
vt 0.998641 0.065756
vt 0.998641 0.130350
vt 0.934047 0.130350
vn 1.000000 0.000000 0.000000
vn 1.000000 0.000000 0.000000
vn 1.000000 0.000000 0.000000
vn 1.000000 0.000000 0.000000
vn 0.000000 1.000000 0.000000
vn 0.000000 1.000000 0.000000
vn 0.000000 1.000000 0.000000
vn 0.000000 1.000000 0.000000
vn -1.000000 0.000000 -0.000000
vn -1.000000 0.000000 -0.000000
vn -1.000000 0.000000 -0.000000
vn -1.000000 0.000000 -0.000000
vn 0.000000 -1.000000 0.000000
vn 0.000000 -1.000000 0.000000
vn 0.000000 -1.000000 0.000000
vn 0.000000 -1.000000 0.000000
vn 0.000000 0.000000 -1.000000
vn 0.000000 0.000000 -1.000000
vn 0.000000 0.000000 -1.000000
vn 0.000000 0.000000 -1.000000
vn 0.000000 0.000000 1.000000
vn 0.000000 0.000000 1.000000
vn 0.000000 0.000000 1.000000
vn 0.000000 0.000000 1.000000
s off
g pCube54
f 41/87/121 42/88/122 44/89/123 43/90/124
f 43/79/125 44/80/126 46/81/127 45/82/128
f 45/91/129 46/92/130 48/93/131 47/94/132
f 47/83/133 48/84/134 42/85/135 41/86/136
f 42/71/137 48/72/138 46/73/139 44/74/140
f 47/75/141 41/76/142 43/77/143 45/78/144
g default
v -3.513223 2.016724 7.345696
v -3.513223 8.457085 7.345695
v -3.513223 8.457085 6.985819
v 3.504512 8.457085 6.985819
v -3.513223 2.016724 6.985820
v 3.504512 2.016724 6.985820
v 1.561025 2.016724 6.985820
v 1.561025 2.016724 7.345696
v -0.000000 8.457085 7.345695
v -0.000000 8.457085 6.985819
v -0.000000 2.016724 6.985820
v -0.000000 2.016724 7.345696
v -1.561025 8.457085 7.345695
v -1.561025 8.457085 6.985819
v -1.561025 2.016724 6.985820
v -1.561025 2.016724 7.345696
v -1.561025 8.049431 7.345695
v -3.513223 8.049431 7.345695
v -3.513223 8.049431 6.985819
v -1.561025 8.049431 6.985819
v -0.000000 8.049431 6.985819
v 1.561025 8.049431 6.985819
v 3.504512 8.049431 6.985819
v 1.561025 8.049431 7.345695
v -0.000000 8.049431 7.345695
v -1.561025 5.236904 7.345695
v -3.513223 5.236904 7.345695
v -3.513223 5.236904 6.985819
v -1.561025 5.236904 6.985819
v 1.561025 5.236904 6.985819
v 3.504512 5.236904 6.985819
v 1.561025 5.236904 7.345695
v -1.561025 2.424379 7.345695
v -3.513223 2.424379 7.345695
v -3.513223 2.424379 6.985819
v -1.561025 2.424379 6.985819
v -0.000000 2.424379 6.985819
v 1.561025 2.424379 6.985819
v 3.504512 2.424379 6.985819
v 1.561025 2.424379 7.345695
v -0.000000 2.424379 7.345695
v 3.495801 5.236904 7.345695
v 3.495801 2.424379 7.345695
v 3.495801 2.016724 7.345696
v 3.495801 8.457085 7.345695
v 3.495801 8.049431 7.345695
vt 0.105843 0.633482
vt 0.105843 0.640150
vt 0.000488 0.640150
vt 0.000488 0.633482
vt 0.105843 0.686159
vt 0.000488 0.686159
vt 0.105843 0.732167
vt 0.000488 0.732167
vt 0.105843 0.738836
vt 0.000488 0.738836
vt 0.253074 0.228625
vt 0.358444 0.228625
vt 0.358444 0.235294
vt 0.253074 0.235294
vt 0.253074 0.182610
vt 0.358444 0.182610
vt 0.253074 0.136594
vt 0.358444 0.136594
vt 0.253074 0.129925
vt 0.358444 0.129925
vt 0.252006 0.286509
vt 0.252006 0.332518
vt 0.146651 0.332518
vt 0.146651 0.286509
vt 0.252006 0.240501
vt 0.146651 0.240501
vt 0.253074 0.281977
vt 0.358429 0.281977
vt 0.358429 0.327985
vt 0.253074 0.327985
vt 0.253074 0.235968
vt 0.358429 0.235968
vt 0.030935 0.129925
vt 0.140979 0.130061
vt 0.140941 0.160635
vt 0.030897 0.160499
vt 0.140910 0.185083
vt 0.030867 0.184946
vt 0.140843 0.239832
vt 0.030799 0.239832
vt 0.252079 0.209121
vt 0.252117 0.239695
vt 0.142073 0.239832
vt 0.142035 0.209258
vt 0.142005 0.184810
vt 0.252048 0.184674
vt 0.141974 0.160362
vt 0.252018 0.160226
vt 0.251980 0.129925
vt 0.141937 0.129925
vt 0.140842 0.264953
vt 0.140842 0.289401
vt 0.030799 0.289401
vt 0.030799 0.264953
vt 0.140842 0.240505
vt 0.030799 0.240506
vt 0.652497 0.308284
vt 0.762541 0.308284
vt 0.762541 0.332732
vt 0.652497 0.332732
vt 0.652497 0.283836
vt 0.762541 0.283836
vt 0.467268 0.335520
vt 0.496734 0.335520
vt 0.496734 0.464860
vt 0.467268 0.464860
vt 0.467268 0.232097
vt 0.496734 0.232097
vt 0.700031 0.335520
vt 0.700031 0.464860
vt 0.467268 0.128674
vt 0.496734 0.128674
vt 0.903327 0.335520
vt 0.903327 0.464860
vt 0.467268 0.000488
vt 0.496734 0.000488
vt 0.932794 0.335520
vt 0.932794 0.464860
vt 0.700031 0.128674
vt 0.700031 0.000488
vt 0.903327 0.232097
vt 0.932794 0.232097
vt 0.903327 0.000488
vt 0.903327 0.128674
vt 0.932794 0.000488
vt 0.436548 0.336098
vt 0.466014 0.336098
vt 0.466014 0.465438
vt 0.436548 0.465438
vt 0.436548 0.232674
vt 0.466014 0.232674
vt 0.233251 0.465438
vt 0.233251 0.336098
vt 0.436548 0.129251
vt 0.466014 0.129251
vt 0.029955 0.465438
vt 0.029955 0.336098
vt 0.436548 0.000488
vt 0.466015 0.000488
vt 0.000488 0.336098
vt 0.000488 0.465438
vt 0.233251 0.129251
vt 0.233251 0.000488
vt 0.000488 0.232674
vt 0.029955 0.232674
vt 0.029955 0.129251
vt 0.029955 0.000488
vt 0.000488 0.000488
vn 0.000000 0.000001 1.000000
vn 0.000000 0.000000 1.000000
vn 0.000000 0.000000 1.000000
vn 0.000000 0.000001 1.000000
vn 0.000000 1.000000 0.000000
vn 0.000000 1.000000 0.000000
vn 0.000000 1.000000 0.000000
vn 0.000000 1.000000 0.000000
vn 0.000000 -0.000000 -1.000000
vn 0.000000 -0.000001 -1.000000
vn 0.000000 -0.000001 -1.000000
vn 0.000000 -0.000000 -1.000000
vn 0.000000 -1.000000 0.000000
vn 0.000000 -1.000000 0.000000
vn 0.000000 -1.000000 0.000000
vn 0.000000 -1.000000 0.000000
vn -1.000000 0.000000 0.000000
vn -1.000000 0.000000 0.000000
vn -1.000000 0.000000 0.000000
vn -1.000000 0.000000 0.000000
vn 0.999707 -0.000000 0.024198
vn 0.182075 0.000000 0.983285
vn 0.182073 0.000001 0.983285
vn 0.999707 -0.000000 0.024198
vn 0.000000 -0.000000 -1.000000
vn 0.000000 -0.000001 -1.000000
vn 0.000000 -0.000001 -1.000000
vn 0.000000 -0.000001 -1.000000
vn 0.000000 -1.000000 -0.000001
vn 0.000000 -1.000000 -0.000001
vn 0.000000 -1.000000 0.000000
vn 0.000000 -1.000000 0.000000
vn 0.000000 0.000001 1.000000
vn 0.000000 0.000000 1.000000
vn 0.000000 0.000001 1.000000
vn 0.000000 0.000001 1.000000
vn 0.000000 1.000000 0.000000
vn 0.000000 1.000000 0.000000
vn 0.000000 0.000000 1.000000
vn 0.000000 0.000000 1.000000
vn 0.000000 0.000000 1.000000
vn 0.000000 0.000000 1.000000
vn -1.000000 0.000000 0.000000
vn -1.000000 0.000000 0.000000
vn -1.000000 0.000000 0.000000
vn -1.000000 0.000000 0.000000
vn 0.000000 0.000000 -1.000000
vn 0.000000 0.000000 -1.000000
vn 0.000000 0.000000 -1.000000
vn 0.000000 0.000000 -1.000000
vn 0.000000 0.000000 -1.000000
vn 0.000000 0.000000 -1.000000
vn 0.999707 0.000000 0.024198
vn 0.102152 0.000000 0.994769
vn 0.165755 0.000000 0.986167
vn 0.999707 0.000000 0.024198
vn 0.000000 0.000000 1.000000
vn 0.000000 0.000000 1.000000
vn 0.000000 0.000000 1.000000
vn 0.000000 0.000000 1.000000
vn -1.000000 0.000000 0.000000
vn -1.000000 0.000000 0.000000
vn 0.000000 0.000000 -1.000000
vn 0.000000 0.000000 -1.000000
vn 0.182075 0.000000 0.983285
vn 0.999707 0.000000 0.024198
vn 1.000000 0.000000 0.000000
vn 1.000000 0.000000 0.000000
vn 1.000000 0.000000 0.000000
vn 1.000000 0.000000 0.000000
vn 1.000000 0.000000 0.000000
vn 1.000000 0.000000 0.000000
vn 1.000000 0.000000 0.000000
vn 1.000000 0.000000 0.000000
vn 0.000000 1.000000 0.000000
vn 0.000000 1.000000 0.000000
vn 0.000000 1.000000 0.000000
vn 0.000000 1.000000 0.000000
vn 0.000000 1.000000 0.000000
vn 0.000000 1.000000 0.000000
vn 0.000000 1.000000 0.000000
vn 0.000000 1.000000 0.000000
vn -1.000000 0.000000 0.000000
vn -1.000000 0.000000 0.000000
vn -1.000000 0.000000 0.000000
vn -1.000000 0.000000 0.000000
vn -1.000000 0.000000 0.000000
vn -1.000000 0.000000 0.000000
vn -1.000000 0.000000 0.000000
vn -1.000000 0.000000 0.000000
vn 0.000000 -1.000000 0.000000
vn 0.000000 -1.000000 0.000000
vn 0.000000 -1.000000 0.000000
vn 0.000000 -1.000000 0.000000
vn 0.000000 -1.000000 0.000000
vn 0.000000 -1.000000 0.000000
vn 0.000000 -1.000000 0.000000
vn 0.000000 -1.000000 0.000000
vn 0.000000 0.000000 1.000000
vn 0.000000 -1.000000 -0.000001
vn 0.000000 -1.000000 -0.000001
vn 0.000000 -0.000000 -1.000000
vn 0.000000 -0.000001 -1.000000
vn 0.000000 0.000000 -1.000000
vn 0.000000 0.000000 -1.000000
vn 0.000000 0.000000 -1.000000
vn 0.000000 0.000000 -1.000000
vn 0.000000 0.000000 -1.000000
vn 0.000000 1.000000 0.000000
vn 0.000000 1.000000 0.000000
vn 0.000000 0.000000 1.000000
s 1
g pCube75
f 64/157/145 81/158/146 82/159/147 49/160/148
s 2
f 51/127/149 50/128/150 61/129/151 62/130/152
s 3
f 84/180/153 63/181/154 53/182/155 83/183/156
s 4
f 64/135/157 49/136/158 53/137/159 63/138/160
s 5
f 49/95/161 82/96/162 83/97/163 53/98/164
s 1
f 87/105/165 91/106/166 92/107/167 54/108/168
s 3
f 86/188/169 55/189/170 59/185/171 85/184/172
s 4
f 55/141/173 56/142/174 60/140/175 59/139/176
s 1
f 56/165/177 88/166/178 89/162/179 60/161/180
s 2
f 62/130/152 61/129/151 57/131/181 58/132/182
s 3
f 85/184/172 59/185/171 63/181/154 84/180/153
s 4
f 59/139/176 60/140/175 64/135/157 63/138/160
s 1
f 60/161/180 89/162/179 81/158/146 64/157/145
f 66/168/183 65/167/184 61/171/185 50/172/186
s 5
f 67/102/187 66/101/188 50/103/189 51/104/190
s 3
f 62/194/191 68/191/192 67/190/193 51/195/194
f 58/198/195 69/199/196 68/191/192 62/194/191
s 1
f 52/113/197 93/114/198 94/112/199 71/111/200
f 65/167/184 73/175/201 57/176/202 61/171/185
f 74/163/203 65/167/184 66/168/183 75/164/204
s 5
f 76/100/205 75/99/206 66/101/188 67/102/187
s 3
f 67/190/193 68/191/192 77/187/207 76/186/208
s 1
f 71/111/200 94/112/199 90/110/209 79/109/210
f 82/159/147 81/158/146 74/163/203 75/164/204
s 5
f 83/97/163 82/96/162 75/99/206 76/100/205
s 3
f 84/180/153 83/183/156 76/186/208 77/187/207
s 1
f 91/106/166 87/105/165 79/109/210 90/110/209
s off
f 74/115/211 81/116/212 84/117/213 77/118/214
f 65/119/215 74/115/216 77/118/217 68/120/218
f 89/145/219 88/146/220 86/147/221 85/148/222
f 81/149/223 89/145/224 85/148/225 84/150/226
f 78/121/227 80/122/228 72/123/229 70/124/230
f 86/125/231 88/126/232 80/122/233 78/121/234
f 69/151/235 73/152/236 65/153/237 68/154/238
f 70/155/239 72/156/240 73/152/241 69/151/242
s 1
f 80/173/243 88/166/178 91/170/166 90/174/209
f 92/169/167 91/170/166 88/166/178 56/165/177
s 4
f 92/143/244 56/142/174 55/141/173 54/144/245
s 3
f 87/192/246 54/193/247 55/189/170 86/188/169
f 87/192/246 86/188/169 78/196/248 79/197/249
f 70/200/250 71/201/251 79/197/249 78/196/248
f 52/202/252 71/201/251 70/200/250 69/199/196 58/198/195
s 2
f 58/132/182 57/131/181 93/133/253 52/134/254
s 1
f 72/178/255 94/177/199 93/179/198 57/176/202 73/175/201
f 80/173/243 90/174/209 94/177/199 72/178/255
