# This file uses centimeters as units for non-parametric coordinates.

g default
v 4.607322 4.090683 7.042999
v 6.135352 4.090683 7.042999
v 4.607322 6.847091 7.042999
v 6.135352 6.847091 7.042999
v 4.607322 6.847091 6.888763
v 6.135352 6.847091 6.888763
v 4.607322 4.090683 6.888763
v 6.135352 4.090683 6.888763
v 5.829746 6.847091 7.042999
v 5.829746 6.847091 6.888763
v 5.829746 4.090683 6.888763
v 5.829746 4.090683 7.042999
v 5.524140 6.847091 7.042999
v 5.524140 6.847091 6.888763
v 5.524140 4.090683 6.888763
v 5.524140 4.090683 7.042999
v 5.218534 6.847091 7.042999
v 5.218534 6.847091 6.888763
v 5.218534 4.090683 6.888763
v 5.218534 4.090683 7.042999
v 4.912928 6.847091 7.042999
v 4.912928 6.847091 6.888763
v 4.912928 4.090683 6.888763
v 4.912928 4.090683 7.042999
vt 0.545709 0.295936
vt 0.545709 0.225703
vt 0.615942 0.225703
vt 0.615942 0.295936
vt 0.027463 0.235546
vt 0.097696 0.235546
vt 0.097696 0.305779
vt 0.027463 0.305779
vt 0.101306 0.235546
vt 0.111764 0.235546
vt 0.111764 0.287838
vt 0.101306 0.287838
vt 0.122223 0.235546
vt 0.122223 0.287838
vt 0.132681 0.235546
vt 0.132681 0.287838
vt 0.143140 0.235546
vt 0.143140 0.287838
vt 0.153598 0.235546
vt 0.153598 0.287838
vt 0.996755 0.319983
vt 0.996755 0.330441
vt 0.944463 0.330441
vt 0.944463 0.319983
vt 0.996755 0.340900
vt 0.944463 0.340900
vt 0.996755 0.351358
vt 0.944463 0.351358
vt 0.996755 0.361817
vt 0.944463 0.361817
vt 0.996755 0.372275
vt 0.944463 0.372275
vt 0.012694 0.011797
vt 0.056907 0.011797
vt 0.056907 0.232860
vt 0.012694 0.232860
vt 0.101119 0.011797
vt 0.101119 0.232860
vt 0.145332 0.011797
vt 0.145332 0.232860
vt 0.189544 0.011797
vt 0.189544 0.232860
vt 0.233757 0.011797
vt 0.233757 0.232860
vt 0.223016 0.621465
vt 0.223016 0.665678
vt 0.001953 0.665678
vt 0.001953 0.621465
vt 0.223016 0.709891
vt 0.001953 0.709891
vt 0.223016 0.754103
vt 0.001953 0.754103
vt 0.223016 0.798316
vt 0.001953 0.798316
vt 0.223016 0.842528
vt 0.001953 0.842528
vn 0.000000 0.000000 1.000000
vn 0.000000 0.000000 1.000000
vn 0.000000 0.000000 1.000000
vn 0.000000 0.000000 1.000000
vn 0.000000 1.000000 0.000000
vn 0.000000 1.000000 0.000000
vn 0.000000 1.000000 0.000000
vn 0.000000 1.000000 0.000000
vn 0.000000 0.000000 -1.000000
vn 0.000000 0.000000 -1.000000
vn 0.000000 0.000000 -1.000000
vn 0.000000 0.000000 -1.000000
vn 0.000000 -1.000000 0.000000
vn 0.000000 -1.000000 0.000000
vn 0.000000 -1.000000 0.000000
vn 0.000000 -1.000000 0.000000
vn 1.000000 0.000000 0.000000
vn 1.000000 0.000000 0.000000
vn 1.000000 0.000000 0.000000
vn 1.000000 0.000000 0.000000
vn -1.000000 0.000000 0.000000
vn -1.000000 0.000000 0.000000
vn -1.000000 0.000000 0.000000
vn -1.000000 0.000000 0.000000
vn 0.000000 1.000000 0.000000
vn 0.000000 1.000000 0.000000
vn 0.000000 1.000000 0.000000
vn 0.000000 1.000000 0.000000
vn 0.000000 0.000000 -1.000000
vn 0.000000 0.000000 -1.000000
vn 0.000000 0.000000 -1.000000
vn 0.000000 0.000000 -1.000000
vn 0.000000 -1.000000 0.000000
vn 0.000000 -1.000000 0.000000
vn 0.000000 -1.000000 0.000000
vn 0.000000 -1.000000 0.000000
vn 0.000000 0.000000 1.000000
vn 0.000000 0.000000 1.000000
vn 0.000000 0.000000 1.000000
vn 0.000000 0.000000 1.000000
vn 0.000000 1.000000 0.000000
vn 0.000000 1.000000 0.000000
vn 0.000000 0.000000 -1.000000
vn 0.000000 0.000000 -1.000000
vn 0.000000 -1.000000 0.000000
vn 0.000000 -1.000000 0.000000
vn 0.000000 0.000000 1.000000
vn 0.000000 0.000000 1.000000
vn 0.000000 1.000000 0.000000
vn 0.000000 1.000000 0.000000
vn 0.000000 0.000000 -1.000000
vn 0.000000 0.000000 -1.000000
vn 0.000000 -1.000000 0.000000
vn 0.000000 -1.000000 0.000000
vn 0.000000 0.000000 1.000000
vn 0.000000 0.000000 1.000000
s 1
g pCube108 doors
f 1/33/1 24/34/2 21/35/3 3/36/4
s 2
f 3/9/5 21/10/6 22/11/7 5/12/8
s 3
f 5/45/9 22/46/10 23/47/11 7/48/12
s 4
f 7/21/13 23/22/14 24/23/15 1/24/16
s off
f 2/1/17 8/2/18 6/3/19 4/4/20
f 7/5/21 1/6/22 3/7/23 5/8/24
s 2
f 9/17/25 4/19/26 6/20/27 10/18/28
s 3
f 11/54/29 10/53/30 6/55/31 8/56/32
s 4
f 12/30/33 11/29/34 8/31/35 2/32/36
s 1
f 9/42/37 12/41/38 2/43/39 4/44/40
s 2
f 13/15/41 9/17/25 10/18/28 14/16/42
s 3
f 15/52/43 14/51/44 10/53/30 11/54/29
s 4
f 16/28/45 15/27/46 11/29/34 12/30/33
s 1
f 13/40/47 16/39/48 12/41/38 9/42/37
s 2
f 17/13/49 13/15/41 14/16/42 18/14/50
s 3
f 19/50/51 18/49/52 14/51/44 15/52/43
s 4
f 20/26/53 19/25/54 15/27/46 16/28/45
s 1
f 17/38/55 20/37/56 16/39/48 13/40/47
s 2
f 21/10/6 17/13/49 18/14/50 22/11/7
s 3
f 23/47/11 22/46/10 18/49/52 19/50/51
s 4
f 24/23/15 23/22/14 19/25/54 20/26/53
s 1
f 21/35/3 24/34/2 20/37/56 17/38/55
g default
v 4.838266 7.297280 3.711980
v 4.838266 7.150323 3.711980
v 4.838336 7.150323 7.281529
v 4.838336 7.297280 7.281529
v 4.718714 7.027189 3.888883
v 4.718778 7.027189 7.104631
v 4.658495 6.864489 3.977990
v 4.658555 6.864489 7.015526
v 3.655998 6.864489 3.978010
v 3.656058 6.864489 7.015546
v 3.657464 7.027189 7.104652
v 3.660256 7.150323 7.281552
v 3.660256 7.297280 7.281552
v 3.660185 7.297280 3.712003
v 3.660185 7.150323 3.712003
v 3.657401 7.027189 3.888904
vt 0.637069 0.948244
vt 0.522884 0.948244
vt 0.522884 0.887659
vt 0.637069 0.887659
vt 0.528543 0.836895
vt 0.631410 0.836895
vt 0.531393 0.769819
vt 0.628560 0.769819
vt 0.667002 0.635781
vt 0.667002 0.767134
vt 0.398022 0.767134
vt 0.398022 0.635781
vt 0.777939 0.225703
vt 0.777939 0.541793
vt 0.623580 0.541793
vt 0.623580 0.225703
vt 0.988033 0.220715
vt 0.944463 0.220663
vt 0.944474 0.162486
vt 0.985629 0.162535
vt 0.992888 0.264750
vt 0.944525 0.264693
vt 0.944463 0.317240
vt 0.992826 0.317298
vt 0.940192 0.057848
vt 0.936407 0.005436
vt 0.984645 0.001953
vt 0.988430 0.054364
vt 0.943249 0.101771
vt 0.986705 0.098633
vt 0.947381 0.159801
vt 0.988430 0.156837
vn 1.000000 0.000000 -0.000020
vn 1.000000 0.000000 -0.000020
vn 0.924255 -0.381777 -0.000018
vn 0.924255 -0.381777 -0.000018
vn 0.836424 -0.548083 -0.000017
vn 0.836424 -0.548083 -0.000017
vn 0.937821 -0.347120 -0.000019
vn 0.937821 -0.347120 -0.000019
vn -0.000000 -1.000000 -0.000000
vn -0.000000 -1.000000 -0.000000
vn -0.000000 -1.000000 -0.000000
vn -0.000000 -1.000000 -0.000000
vn 0.000017 -0.480350 0.877077
vn 0.000017 -0.480350 0.877077
vn 0.000017 -0.480350 0.877077
vn 0.000017 -0.480350 0.877077
vn 0.000017 -0.521501 0.853251
vn 0.000017 -0.537546 0.843235
vn 0.000011 -0.820746 0.571294
vn 0.000011 -0.820746 0.571294
vn 0.000020 -0.000000 1.000000
vn 0.000020 -0.000000 1.000000
vn 0.000000 1.000000 0.000000
vn 0.000000 1.000000 0.000000
vn 0.000000 1.000000 0.000000
vn 0.000000 1.000000 0.000000
vn -0.000017 -0.537547 -0.843234
vn -0.000020 0.000000 -1.000000
vn -0.000020 0.000000 -1.000000
vn -0.000017 -0.521502 -0.853250
vn -0.000011 -0.820746 -0.571293
vn -0.000011 -0.820746 -0.571293
vn -0.000017 -0.480350 -0.877077
vn -0.000017 -0.480350 -0.877077
vn -0.000017 -0.480350 -0.877077
vn -0.000017 -0.480350 -0.877077
s 1
g pCube45
f 25/57/57 28/58/58 27/59/59 26/60/60
f 26/60/60 27/59/59 30/61/61 29/62/62
f 29/62/62 30/61/61 32/63/63 31/64/64
s off
f 33/65/65 31/66/66 32/67/67 34/68/68
f 30/73/69 35/74/70 34/75/71 32/76/72
s 2
f 27/77/73 36/78/74 35/74/75 30/73/76
f 37/79/77 36/78/74 27/77/73 28/80/78
s off
f 38/69/79 37/70/80 28/71/81 25/72/82
s 3
f 39/81/83 38/82/84 25/83/85 26/84/86
f 40/85/87 39/81/83 26/84/86 29/86/88
s off
f 33/87/89 40/85/90 29/86/91 31/88/92
g default
v 4.916520 3.608753 7.285133
v 4.916520 3.755709 7.285133
v 4.916590 3.755709 3.754677
v 4.916590 3.608753 3.754677
v 4.806283 3.878844 7.110167
v 4.806346 3.878844 3.929638
v 4.750755 4.041543 7.022036
v 4.750815 4.041543 4.017767
v 3.826361 4.041543 7.022018
v 3.826420 4.041543 4.017748
v 3.827717 3.878844 3.929618
v 3.830292 3.755709 3.754655
v 3.830292 3.608753 3.754655
v 3.830222 3.608753 7.285111
v 3.830222 3.755709 7.285111
v 3.827654 3.878844 7.110148
vt 0.817049 0.849025
vt 0.817049 0.961668
vt 0.757282 0.961668
vt 0.757282 0.849025
vt 0.707203 0.956086
vt 0.707203 0.854608
vt 0.641034 0.953274
vt 0.641034 0.857420
vt 0.351609 0.892652
vt 0.226168 0.892652
vt 0.226168 0.635781
vt 0.351609 0.635781
vt 0.670571 0.846340
vt 0.670571 0.544479
vt 0.817982 0.544479
vt 0.817982 0.846340
vt 0.375961 0.230357
vt 0.375912 0.272117
vt 0.320151 0.272106
vt 0.320198 0.232660
vt 0.418167 0.225703
vt 0.418112 0.272057
vt 0.468477 0.272117
vt 0.468532 0.225762
vt 0.283144 0.109515
vt 0.286771 0.159749
vt 0.240537 0.163088
vt 0.236909 0.112853
vt 0.280214 0.067416
vt 0.238562 0.070423
vt 0.276253 0.011796
vt 0.236909 0.014637
vn 1.000000 0.000000 0.000020
vn 1.000000 0.000000 0.000020
vn 0.934509 0.355939 0.000018
vn 0.934509 0.355939 0.000018
vn 0.855896 0.517148 0.000017
vn 0.855896 0.517148 0.000017
vn 0.946398 0.323004 0.000019
vn 0.946398 0.323004 0.000019
vn 0.000000 1.000000 0.000000
vn 0.000000 1.000000 0.000000
vn 0.000000 1.000000 0.000000
vn 0.000000 1.000000 0.000000
vn 0.000017 0.476287 -0.879290
vn 0.000017 0.476287 -0.879290
vn 0.000017 0.476287 -0.879290
vn 0.000017 0.476287 -0.879290
vn 0.000017 0.517324 -0.855789
vn 0.000017 0.533340 -0.845901
vn 0.000011 0.817779 -0.575532
vn 0.000011 0.817779 -0.575532
vn 0.000020 0.000000 -1.000000
vn 0.000020 0.000000 -1.000000
vn 0.000000 -1.000000 0.000000
vn 0.000000 -1.000000 0.000000
vn 0.000000 -1.000000 0.000000
vn 0.000000 -1.000000 0.000000
vn -0.000017 0.533341 0.845901
vn -0.000020 0.000000 1.000000
vn -0.000020 0.000000 1.000000
vn -0.000017 0.517325 0.855789
vn -0.000011 0.817780 0.575531
vn -0.000011 0.817780 0.575531
vn -0.000017 0.476287 0.879290
vn -0.000017 0.476287 0.879290
vn -0.000017 0.476287 0.879290
vn -0.000017 0.476287 0.879290
s 1
g pCube44
f 41/89/93 44/90/94 43/91/95 42/92/96
f 42/92/96 43/91/95 46/93/97 45/94/98
f 45/94/98 46/93/97 48/95/99 47/96/100
s off
f 49/97/101 47/98/102 48/99/103 50/100/104
f 46/105/105 51/106/106 50/107/107 48/108/108
s 2
f 43/109/109 52/110/110 51/106/111 46/105/112
f 53/111/113 52/110/110 43/109/109 44/112/114
s off
f 54/101/115 53/102/116 44/103/117 41/104/118
s 3
f 55/113/119 54/114/120 41/115/121 42/116/122
f 56/117/123 55/113/119 42/116/122 45/118/124
s off
f 49/119/125 56/117/126 45/118/127 47/120/128
g default
v 4.536704 4.064817 4.178014
v 5.971841 4.064817 4.702664
v 4.536704 6.821225 4.178014
v 5.971841 6.821225 4.702664
v 4.589661 6.821225 4.033154
v 6.024798 6.821225 4.557804
v 4.589661 4.064817 4.033154
v 6.024798 4.064817 4.557804
v 5.684814 6.821225 4.597734
v 5.737771 6.821225 4.452874
v 5.737771 4.064817 4.452874
v 5.684814 4.064817 4.597734
v 5.397786 6.821225 4.492804
v 5.450744 6.821225 4.347944
v 5.450744 4.064817 4.347944
v 5.397786 4.064817 4.492804
v 5.110759 6.821225 4.387874
v 5.163716 6.821225 4.243014
v 5.163716 4.064817 4.243014
v 5.110759 4.064817 4.387874
v 4.823732 6.821225 4.282944
v 4.876689 6.821225 4.138084
v 4.876689 4.064817 4.138084
v 4.823732 4.064817 4.282944
vt 0.471865 0.295936
vt 0.471865 0.225703
vt 0.542099 0.225703
vt 0.542099 0.295936
vt 0.273577 0.235546
vt 0.273577 0.305779
vt 0.203344 0.305779
vt 0.203344 0.235546
vt 0.944463 0.374960
vt 0.954921 0.374960
vt 0.954921 0.427253
vt 0.944463 0.427253
vt 0.965379 0.374960
vt 0.965379 0.427253
vt 0.975838 0.374960
vt 0.975838 0.427253
vt 0.986296 0.374960
vt 0.986296 0.427253
vt 0.996755 0.374960
vt 0.996755 0.427253
vt 0.305313 0.165065
vt 0.305313 0.175523
vt 0.253020 0.175523
vt 0.253020 0.165065
vt 0.305313 0.185982
vt 0.253020 0.185982
vt 0.305313 0.196440
vt 0.253020 0.196440
vt 0.305313 0.206898
vt 0.253020 0.206898
vt 0.305313 0.217357
vt 0.253020 0.217357
vt 0.765429 0.001955
vt 0.765429 0.046167
vt 0.544366 0.046167
vt 0.544366 0.001955
vt 0.765429 0.090380
vt 0.544366 0.090380
vt 0.765429 0.134592
vt 0.544366 0.134592
vt 0.765429 0.178805
vt 0.544366 0.178805
vt 0.765429 0.223017
vt 0.544366 0.223017
vt 0.320151 0.001955
vt 0.364363 0.001955
vt 0.364363 0.223018
vt 0.320151 0.223018
vt 0.408576 0.001955
vt 0.408576 0.223018
vt 0.452789 0.001955
vt 0.452789 0.223018
vt 0.497001 0.001955
vt 0.497001 0.223018
vt 0.541214 0.001955
vt 0.541214 0.223018
vn -0.343351 0.000000 0.939207
vn -0.343351 0.000000 0.939207
vn -0.343351 0.000000 0.939207
vn -0.343351 0.000000 0.939207
vn 0.000000 1.000000 0.000000
vn 0.000000 1.000000 0.000000
vn 0.000000 1.000000 0.000000
vn 0.000000 1.000000 0.000000
vn 0.343351 0.000000 -0.939207
vn 0.343351 0.000000 -0.939207
vn 0.343351 0.000000 -0.939207
vn 0.343351 0.000000 -0.939207
vn 0.000000 -1.000000 0.000000
vn 0.000000 -1.000000 0.000000
vn 0.000000 -1.000000 0.000000
vn 0.000000 -1.000000 0.000000
vn 0.939207 0.000000 0.343351
vn 0.939207 0.000000 0.343351
vn 0.939207 0.000000 0.343351
vn 0.939207 0.000000 0.343351
vn -0.939207 0.000000 -0.343351
vn -0.939207 0.000000 -0.343351
vn -0.939207 0.000000 -0.343351
vn -0.939207 0.000000 -0.343351
vn 0.000000 1.000000 0.000000
vn 0.000000 1.000000 0.000000
vn 0.000000 1.000000 0.000000
vn 0.000000 1.000000 0.000000
vn 0.343351 0.000000 -0.939207
vn 0.343351 0.000000 -0.939207
vn 0.343351 0.000000 -0.939207
vn 0.343351 0.000000 -0.939207
vn 0.000000 -1.000000 0.000000
vn 0.000000 -1.000000 0.000000
vn 0.000000 -1.000000 0.000000
vn 0.000000 -1.000000 0.000000
vn -0.343351 0.000000 0.939207
vn -0.343351 0.000000 0.939207
vn -0.343351 0.000000 0.939207
vn -0.343351 0.000000 0.939207
vn 0.000000 1.000000 0.000000
vn 0.000000 1.000000 0.000000
vn 0.343351 0.000000 -0.939207
vn 0.343351 0.000000 -0.939207
vn 0.000000 -1.000000 0.000000
vn 0.000000 -1.000000 0.000000
vn -0.343351 0.000000 0.939207
vn -0.343351 0.000000 0.939207
vn 0.000000 1.000000 0.000000
vn 0.000000 1.000000 0.000000
vn 0.343351 0.000000 -0.939207
vn 0.343351 0.000000 -0.939207
vn 0.000000 -1.000000 0.000000
vn 0.000000 -1.000000 0.000000
vn -0.343351 0.000000 0.939207
vn -0.343351 0.000000 0.939207
s 1
g doors pCube109
f 57/153/129 80/154/130 77/155/131 59/156/132
s 2
f 59/129/133 77/130/134 78/131/135 61/132/136
s 3
f 61/165/137 78/166/138 79/167/139 63/168/140
s 4
f 63/141/141 79/142/142 80/143/143 57/144/144
s off
f 58/121/145 64/122/146 62/123/147 60/124/148
f 63/125/149 57/126/150 59/127/151 61/128/152
s 2
f 65/137/153 60/139/154 62/140/155 66/138/156
s 3
f 67/174/157 66/173/158 62/175/159 64/176/160
s 4
f 68/150/161 67/149/162 64/151/163 58/152/164
s 1
f 65/162/165 68/161/166 58/163/167 60/164/168
s 2
f 69/135/169 65/137/153 66/138/156 70/136/170
s 3
f 71/172/171 70/171/172 66/173/158 67/174/157
s 4
f 72/148/173 71/147/174 67/149/162 68/150/161
s 1
f 69/160/175 72/159/176 68/161/166 65/162/165
s 2
f 73/133/177 69/135/169 70/136/170 74/134/178
s 3
f 75/170/179 74/169/180 70/171/172 71/172/171
s 4
f 76/146/181 75/145/182 71/147/174 72/148/173
s 1
f 73/158/183 76/157/184 72/159/176 69/160/175
s 2
f 77/130/134 73/133/177 74/134/178 78/131/135
s 3
f 79/167/139 78/166/138 74/169/180 75/170/179
s 4
f 80/143/143 79/142/142 75/145/182 76/146/181
s 1
f 77/155/131 80/154/130 76/157/184 73/158/183
g default
v 3.817569 4.029710 7.029968
v 4.598078 4.029710 7.029983
v 3.817569 6.861109 7.029968
v 4.598078 6.861109 7.029983
v 3.817628 6.861109 4.024364
v 4.598137 6.861109 4.024380
v 3.817628 4.029710 4.024364
v 4.598137 4.029710 4.024380
v 4.598136 4.094204 4.092842
v 4.598079 4.094204 6.961520
v 4.598136 6.796614 4.092842
v 4.598079 6.796614 6.961520
v 3.844667 4.094204 4.092827
v 3.844610 4.094204 6.961505
v 3.844667 6.796614 4.092827
v 3.844610 6.796614 6.961505
vt 0.001953 0.318868
vt 0.301866 0.318868
vt 0.301866 0.618780
vt 0.001953 0.618780
vt 0.305382 0.633095
vt 0.305382 0.318868
vt 0.619610 0.318868
vt 0.619610 0.633095
vt 0.316181 0.001955
vt 0.316181 0.316182
vt 0.309023 0.309025
vt 0.309023 0.009112
vt 0.001953 0.316182
vt 0.009111 0.309025
vt 0.001953 0.001955
vt 0.009111 0.009112
vt 0.933562 0.001955
vt 0.933562 0.166935
vt 0.768581 0.166935
vt 0.768581 0.001955
vt 0.520039 0.769819
vt 0.520039 0.934800
vt 0.355058 0.934800
vt 0.355058 0.769819
vt 0.980208 0.495247
vt 0.980208 0.652712
vt 0.820943 0.652712
vt 0.820943 0.495247
vt 0.980208 0.655397
vt 0.980208 0.812862
vt 0.820943 0.812862
vt 0.820943 0.655397
vt 0.940793 0.332434
vt 0.940793 0.492562
vt 0.780665 0.492562
vt 0.780665 0.332434
vt 0.940793 0.169620
vt 0.940793 0.329749
vt 0.780665 0.329749
vt 0.780665 0.169620
vt 0.156534 0.845214
vt 0.156534 0.998047
vt 0.001953 0.998047
vt 0.001953 0.845214
vt 0.820943 0.968380
vt 0.820943 0.815547
vt 0.975524 0.815547
vt 0.975524 0.968380
vn -0.000020 0.000000 1.000000
vn -0.000020 0.000000 1.000000
vn -0.000020 0.000000 1.000000
vn -0.000020 0.000000 1.000000
vn 0.000000 1.000000 0.000000
vn 0.000000 1.000000 0.000000
vn 0.000000 1.000000 0.000000
vn 0.000000 1.000000 0.000000
vn 0.000020 0.000000 -1.000000
vn 0.000020 0.000000 -1.000000
vn 0.000020 0.000000 -1.000000
vn 0.000020 0.000000 -1.000000
vn 0.000000 -1.000000 0.000000
vn 0.000000 -1.000000 0.000000
vn 0.000000 -1.000000 0.000000
vn 0.000000 -1.000000 0.000000
vn 1.000000 0.000000 0.000020
vn 1.000000 0.000000 0.000020
vn 1.000000 0.000000 0.000020
vn 1.000000 0.000000 0.000020
vn -1.000000 0.000000 -0.000020
vn -1.000000 0.000000 -0.000020
vn -1.000000 0.000000 -0.000020
vn -1.000000 0.000000 -0.000020
vn 1.000000 0.000000 0.000020
vn 1.000000 0.000000 0.000020
vn 1.000000 0.000000 0.000020
vn 1.000000 0.000000 0.000020
vn 1.000000 0.000000 0.000020
vn 1.000000 0.000000 0.000020
vn 1.000000 0.000000 0.000020
vn 1.000000 0.000000 0.000020
vn 1.000000 0.000000 0.000020
vn 1.000000 0.000000 0.000020
vn 1.000000 0.000000 0.000020
vn 1.000000 0.000000 0.000020
vn 1.000000 0.000000 0.000020
vn 1.000000 0.000000 0.000020
vn 1.000000 0.000000 0.000020
vn 1.000000 0.000000 0.000020
vn 0.000000 1.000000 0.000000
vn 0.000000 1.000000 0.000000
vn 0.000000 1.000000 0.000000
vn 0.000000 1.000000 0.000000
vn -0.000020 0.000000 1.000000
vn -0.000020 0.000000 1.000000
vn -0.000020 0.000000 1.000000
vn -0.000020 0.000000 1.000000
vn 0.000000 -1.000000 0.000000
vn 0.000000 -1.000000 0.000000
vn 0.000000 -1.000000 0.000000
vn 0.000000 -1.000000 0.000000
vn 0.000020 0.000000 -1.000000
vn 0.000020 0.000000 -1.000000
vn 0.000020 0.000000 -1.000000
vn 0.000020 0.000000 -1.000000
s off
g pCube43
f 81/209/185 82/210/186 84/211/187 83/212/188
f 83/193/189 84/194/190 86/195/191 85/196/192
f 85/213/193 86/214/194 88/215/195 87/216/196
f 87/197/197 88/198/198 82/199/199 81/200/200
f 94/177/201 93/178/202 95/179/203 96/180/204
f 87/181/205 81/182/206 83/183/207 85/184/208
f 82/185/209 88/186/210 89/187/211 90/188/212
f 88/186/213 86/189/214 91/190/215 89/187/216
f 86/189/217 84/191/218 92/192/219 91/190/220
f 84/191/221 82/185/222 90/188/223 92/192/224
f 90/201/225 89/202/226 93/203/227 94/204/228
f 89/217/229 91/218/230 95/219/231 93/220/232
f 91/205/233 92/206/234 96/207/235 95/208/236
f 92/221/237 90/222/238 94/223/239 96/224/240
