# This file uses centimeters as units for non-parametric coordinates.

mtllib doorLP.mtl
g default
v -0.968646 7.968834 7.378950
v -1.556124 7.968834 7.378950
v -0.968646 2.552059 7.378950
v -1.556124 2.552059 7.378950
v -0.968646 2.552059 7.224687
v -1.556124 2.552059 7.224687
v -0.968646 7.968834 7.224687
v -1.556124 7.968834 7.224687
v -0.324394 2.550119 7.378950
v 0.263084 2.550119 7.378950
v -0.324394 7.968484 7.378950
v 0.263084 7.968484 7.378950
v -0.324394 7.968484 7.224687
v 0.263084 7.968484 7.224687
v -0.324394 2.550119 7.224687
v 0.263084 2.550119 7.224687
v -1.495841 6.339135 7.509390
v 1.468256 6.339135 7.509390
v -1.495841 6.897932 7.509390
v 1.468256 6.897932 7.509390
v -1.495841 6.897932 7.374913
v 1.468256 6.897932 7.374913
v -1.495841 6.339135 7.374913
v 1.468256 6.339135 7.374913
v 1.474821 7.963548 7.373624
v 0.887343 7.963548 7.373624
v 1.474821 2.548341 7.373624
v 0.887343 2.548341 7.373624
v 1.474821 2.548341 7.219361
v 0.887343 2.548341 7.219361
v 1.474821 7.963548 7.219361
v 0.887343 7.963548 7.219361
v -0.341578 7.968834 7.378950
v -0.929056 7.968834 7.378950
v -0.341578 2.552059 7.378950
v -0.929056 2.552059 7.378950
v -0.341578 2.552059 7.224687
v -0.929056 2.552059 7.224687
v -0.341578 7.968834 7.224687
v -0.929056 7.968834 7.224687
v -1.495841 3.736294 7.509390
v 1.468256 3.736294 7.509390
v -1.495841 4.295091 7.509390
v 1.468256 4.295091 7.509390
v -1.495841 4.295091 7.374913
v 1.468256 4.295091 7.374913
v -1.495841 3.736294 7.374913
v 1.468256 3.736294 7.374913
v 0.285219 2.549845 7.379852
v 0.872697 2.549845 7.379852
v 0.285219 7.968044 7.379852
v 0.872697 7.968044 7.379852
v 0.285219 7.968044 7.225589
v 0.872697 7.968044 7.225589
v 0.285219 2.549845 7.225589
v 0.872697 2.549845 7.225589
vt 0.068171 0.292553
vt 0.068191 0.225826
vt 0.683260 0.225966
vt 0.683240 0.292656
vt 0.700780 0.225975
vt 0.700755 0.292682
vt 0.683232 0.310141
vt 0.683229 0.376829
vt 0.068160 0.376829
vt 0.068162 0.310101
vt 0.050652 0.292526
vt 0.050678 0.225819
vt 0.068199 0.208282
vt 0.683268 0.208476
vt 0.079031 0.553113
vt 0.079056 0.486401
vt 0.694310 0.486427
vt 0.694285 0.553130
vt 0.711833 0.486453
vt 0.711793 0.553161
vt 0.694319 0.402155
vt 0.694322 0.468886
vt 0.079068 0.468908
vt 0.079064 0.402223
vt 0.061506 0.553082
vt 0.061547 0.486374
vt 0.079027 0.570638
vt 0.694281 0.570638
vt 0.752219 0.366946
vt 0.752175 0.030370
vt 0.815629 0.030345
vt 0.815667 0.366920
vt 0.830909 0.030334
vt 0.830924 0.366907
vt 0.894368 0.030329
vt 0.894368 0.366903
vt 0.736949 0.366951
vt 0.736905 0.030377
vt 0.752157 0.015106
vt 0.815608 0.015072
vt 0.752237 0.382222
vt 0.815689 0.382187
vt 0.075410 0.874026
vt 0.075440 0.807322
vt 0.690337 0.807414
vt 0.690305 0.874126
vt 0.707862 0.807444
vt 0.707814 0.874153
vt 0.690293 0.891616
vt 0.690288 0.958301
vt 0.075393 0.958301
vt 0.075398 0.891570
vt 0.057888 0.874000
vt 0.057932 0.807292
vt 0.075446 0.789817
vt 0.690342 0.789886
vt 0.082643 0.750599
vt 0.082649 0.683901
vt 0.697723 0.683869
vt 0.697718 0.750586
vt 0.715241 0.683881
vt 0.715232 0.750590
vt 0.697709 0.599582
vt 0.697725 0.666314
vt 0.082651 0.666423
vt 0.082636 0.599739
vt 0.065124 0.750595
vt 0.065136 0.683887
vt 0.082642 0.768109
vt 0.697717 0.768109
vt 0.745413 0.775715
vt 0.745475 0.439141
vt 0.808921 0.439160
vt 0.808869 0.775734
vt 0.824174 0.439167
vt 0.824155 0.775742
vt 0.887616 0.439170
vt 0.887616 0.775745
vt 0.730141 0.775709
vt 0.730209 0.439134
vt 0.745484 0.423868
vt 0.808936 0.423891
vt 0.745404 0.790981
vt 0.808856 0.791005
vt 0.057321 0.105920
vt 0.057353 0.039217
vt 0.672586 0.039302
vt 0.672555 0.106014
vt 0.690111 0.039333
vt 0.690065 0.106041
vt 0.672543 0.123508
vt 0.672539 0.190192
vt 0.057304 0.190192
vt 0.057309 0.123461
vt 0.039798 0.105893
vt 0.039844 0.039186
vt 0.057357 0.021708
vt 0.672590 0.021778
vn 0.000000 0.000000 1.000000
vn 0.000000 0.000000 1.000000
vn 0.000000 0.000000 1.000000
vn 0.000000 0.000000 1.000000
vn 0.000000 -1.000000 0.000000
vn 0.000000 -1.000000 0.000000
vn 0.000000 -1.000000 0.000000
vn 0.000000 -1.000000 0.000000
vn 0.000000 0.000000 -1.000000
vn 0.000000 0.000000 -1.000000
vn 0.000000 0.000000 -1.000000
vn 0.000000 0.000000 -1.000000
vn 0.000000 1.000000 0.000000
vn 0.000000 1.000000 0.000000
vn 0.000000 1.000000 0.000000
vn 0.000000 1.000000 0.000000
vn -1.000000 0.000000 0.000000
vn -1.000000 0.000000 0.000000
vn -1.000000 0.000000 0.000000
vn -1.000000 0.000000 0.000000
vn 1.000000 0.000000 0.000000
vn 1.000000 0.000000 0.000000
vn 1.000000 0.000000 0.000000
vn 1.000000 0.000000 0.000000
vn 0.000000 0.000000 1.000000
vn 0.000000 0.000000 1.000000
vn 0.000000 0.000000 1.000000
vn 0.000000 0.000000 1.000000
vn 0.000000 1.000000 0.000000
vn 0.000000 1.000000 0.000000
vn 0.000000 1.000000 0.000000
vn 0.000000 1.000000 0.000000
vn 0.000000 0.000000 -1.000000
vn 0.000000 0.000000 -1.000000
vn 0.000000 0.000000 -1.000000
vn 0.000000 0.000000 -1.000000
vn 0.000000 -1.000000 0.000000
vn 0.000000 -1.000000 0.000000
vn 0.000000 -1.000000 0.000000
vn 0.000000 -1.000000 0.000000
vn 1.000000 0.000000 0.000000
vn 1.000000 0.000000 0.000000
vn 1.000000 0.000000 0.000000
vn 1.000000 0.000000 0.000000
vn -1.000000 0.000000 0.000000
vn -1.000000 0.000000 0.000000
vn -1.000000 0.000000 0.000000
vn -1.000000 0.000000 0.000000
vn 0.000000 0.000000 1.000000
vn 0.000000 0.000000 1.000000
vn 0.000000 0.000000 1.000000
vn 0.000000 0.000000 1.000000
vn 0.000000 1.000000 0.000000
vn 0.000000 1.000000 0.000000
vn 0.000000 1.000000 0.000000
vn 0.000000 1.000000 0.000000
vn 0.000000 0.000000 -1.000000
vn 0.000000 0.000000 -1.000000
vn 0.000000 0.000000 -1.000000
vn 0.000000 0.000000 -1.000000
vn 0.000000 -1.000000 0.000000
vn 0.000000 -1.000000 0.000000
vn 0.000000 -1.000000 0.000000
vn 0.000000 -1.000000 0.000000
vn 1.000000 0.000000 0.000000
vn 1.000000 0.000000 0.000000
vn 1.000000 0.000000 0.000000
vn 1.000000 0.000000 0.000000
vn -1.000000 0.000000 0.000000
vn -1.000000 0.000000 0.000000
vn -1.000000 0.000000 0.000000
vn -1.000000 0.000000 0.000000
vn 0.000000 0.000000 1.000000
vn 0.000000 0.000000 1.000000
vn 0.000000 0.000000 1.000000
vn 0.000000 0.000000 1.000000
vn 0.000000 -1.000000 0.000000
vn 0.000000 -1.000000 0.000000
vn 0.000000 -1.000000 0.000000
vn 0.000000 -1.000000 0.000000
vn 0.000000 0.000000 -1.000000
vn 0.000000 0.000000 -1.000000
vn 0.000000 0.000000 -1.000000
vn 0.000000 0.000000 -1.000000
vn 0.000000 1.000000 0.000000
vn 0.000000 1.000000 0.000000
vn 0.000000 1.000000 0.000000
vn 0.000000 1.000000 0.000000
vn -1.000000 0.000000 0.000000
vn -1.000000 0.000000 0.000000
vn -1.000000 0.000000 0.000000
vn -1.000000 0.000000 0.000000
vn 1.000000 0.000000 0.000000
vn 1.000000 0.000000 0.000000
vn 1.000000 0.000000 0.000000
vn 1.000000 0.000000 0.000000
vn 0.000000 0.000000 1.000000
vn 0.000000 0.000000 1.000000
vn 0.000000 0.000000 1.000000
vn 0.000000 0.000000 1.000000
vn 0.000000 -1.000000 0.000000
vn 0.000000 -1.000000 0.000000
vn 0.000000 -1.000000 0.000000
vn 0.000000 -1.000000 0.000000
vn 0.000000 0.000000 -1.000000
vn 0.000000 0.000000 -1.000000
vn 0.000000 0.000000 -1.000000
vn 0.000000 0.000000 -1.000000
vn 0.000000 1.000000 0.000000
vn 0.000000 1.000000 0.000000
vn 0.000000 1.000000 0.000000
vn 0.000000 1.000000 0.000000
vn -1.000000 0.000000 0.000000
vn -1.000000 0.000000 0.000000
vn -1.000000 0.000000 0.000000
vn -1.000000 0.000000 0.000000
vn 1.000000 0.000000 0.000000
vn 1.000000 0.000000 0.000000
vn 1.000000 0.000000 0.000000
vn 1.000000 0.000000 0.000000
vn 0.000000 0.000000 1.000000
vn 0.000000 0.000000 1.000000
vn 0.000000 0.000000 1.000000
vn 0.000000 0.000000 1.000000
vn 0.000000 1.000000 0.000000
vn 0.000000 1.000000 0.000000
vn 0.000000 1.000000 0.000000
vn 0.000000 1.000000 0.000000
vn 0.000000 0.000000 -1.000000
vn 0.000000 0.000000 -1.000000
vn 0.000000 0.000000 -1.000000
vn 0.000000 0.000000 -1.000000
vn 0.000000 -1.000000 0.000000
vn 0.000000 -1.000000 0.000000
vn 0.000000 -1.000000 0.000000
vn 0.000000 -1.000000 0.000000
vn 1.000000 0.000000 0.000000
vn 1.000000 0.000000 0.000000
vn 1.000000 0.000000 0.000000
vn 1.000000 0.000000 0.000000
vn -1.000000 0.000000 0.000000
vn -1.000000 0.000000 0.000000
vn -1.000000 0.000000 0.000000
vn -1.000000 0.000000 0.000000
vn 0.000000 0.000000 1.000000
vn 0.000000 0.000000 1.000000
vn 0.000000 0.000000 1.000000
vn 0.000000 0.000000 1.000000
vn 0.000000 1.000000 0.000000
vn 0.000000 1.000000 0.000000
vn 0.000000 1.000000 0.000000
vn 0.000000 1.000000 0.000000
vn 0.000000 0.000000 -1.000000
vn 0.000000 0.000000 -1.000000
vn 0.000000 0.000000 -1.000000
vn 0.000000 0.000000 -1.000000
vn 0.000000 -1.000000 0.000000
vn 0.000000 -1.000000 0.000000
vn 0.000000 -1.000000 0.000000
vn 0.000000 -1.000000 0.000000
vn 1.000000 0.000000 0.000000
vn 1.000000 0.000000 0.000000
vn 1.000000 0.000000 0.000000
vn 1.000000 0.000000 0.000000
vn -1.000000 0.000000 0.000000
vn -1.000000 0.000000 0.000000
vn -1.000000 0.000000 0.000000
vn -1.000000 0.000000 0.000000
s off
g doorLP:default1
usemtl initialShadingGroup
f 1/1/1 2/2/2 4/3/3 3/4/4
f 3/4/5 4/3/6 6/5/7 5/6/8
f 5/7/9 6/8/10 8/9/11 7/10/12
f 7/11/13 8/12/14 2/2/15 1/1/16
f 2/2/17 8/13/18 6/14/19 4/3/20
f 7/10/21 1/1/22 3/4/23 5/7/24
f 9/15/25 10/16/26 12/17/27 11/18/28
f 11/18/29 12/17/30 14/19/31 13/20/32
f 13/21/33 14/22/34 16/23/35 15/24/36
f 15/25/37 16/26/38 10/16/39 9/15/40
f 10/16/41 16/23/42 14/22/43 12/17/44
f 15/27/45 9/15/46 11/18/47 13/28/48
f 17/29/49 18/30/50 20/31/51 19/32/52
f 19/32/53 20/31/54 22/33/55 21/34/56
f 21/34/57 22/33/58 24/35/59 23/36/60
f 23/37/61 24/38/62 18/30/63 17/29/64
f 18/30/65 24/39/66 22/40/67 20/31/68
f 23/41/69 17/29/70 19/32/71 21/42/72
f 25/43/73 26/44/74 28/45/75 27/46/76
f 27/46/77 28/45/78 30/47/79 29/48/80
f 29/49/81 30/50/82 32/51/83 31/52/84
f 31/53/85 32/54/86 26/44/87 25/43/88
f 26/44/89 32/55/90 30/56/91 28/45/92
f 31/52/93 25/43/94 27/46/95 29/49/96
f 33/57/97 34/58/98 36/59/99 35/60/100
f 35/60/101 36/59/102 38/61/103 37/62/104
f 37/63/105 38/64/106 40/65/107 39/66/108
f 39/67/109 40/68/110 34/58/111 33/57/112
f 34/58/113 40/65/114 38/64/115 36/59/116
f 39/69/117 33/57/118 35/60/119 37/70/120
f 41/71/121 42/72/122 44/73/123 43/74/124
f 43/74/125 44/73/126 46/75/127 45/76/128
f 45/76/129 46/75/130 48/77/131 47/78/132
f 47/79/133 48/80/134 42/72/135 41/71/136
f 42/72/137 48/81/138 46/82/139 44/73/140
f 47/83/141 41/71/142 43/74/143 45/84/144
f 49/85/145 50/86/146 52/87/147 51/88/148
f 51/88/149 52/87/150 54/89/151 53/90/152
f 53/91/153 54/92/154 56/93/155 55/94/156
f 55/95/157 56/96/158 50/86/159 49/85/160
f 50/86/161 56/97/162 54/98/163 52/87/164
f 55/94/165 49/85/166 51/88/167 53/91/168
