# This file uses centimeters as units for non-parametric coordinates.

mtllib frontSideWallLP.mtl
g default
v 2.584891 1.870383 7.323561
v 3.775394 1.870383 7.323584
v 2.584891 8.281568 7.323561
v 3.775394 8.281568 7.323584
v 2.585168 8.281568 -6.749988
v 3.775672 8.281568 -6.749963
v 2.585168 1.870383 -6.749988
v 3.775672 1.870383 -6.749963
v 3.775464 8.281568 3.765803
v 2.584960 8.281568 3.765778
v 2.584960 1.870383 3.765778
v 3.775464 1.870383 3.765803
v 3.775522 8.281568 0.850020
v 2.585017 8.281568 0.849996
v 2.585017 1.870383 0.849996
v 3.775522 1.870383 0.850020
v 3.775464 2.349326 3.765803
v 3.775394 3.960385 7.323584
v 2.584891 3.960385 7.323561
v 2.584960 3.960385 3.765778
v 2.585017 3.960385 0.849996
v 2.585168 3.960385 -6.749988
v 3.775672 3.960385 -6.749963
v 3.775522 2.349326 0.850020
v 3.775464 6.948650 3.765803
v 3.775394 6.948650 7.323584
v 2.584891 6.948650 7.323561
v 2.584960 6.948650 3.765778
v 2.585017 6.948650 0.849996
v 2.585168 6.948650 -6.749988
v 3.775672 6.948650 -6.749963
v 3.775522 6.948650 0.850020
v 3.775545 3.960385 -0.362617
v 3.775545 1.870383 -0.362617
v 2.585042 1.870383 -0.362641
v 2.590794 3.960385 -0.362641
v 2.585042 6.948650 -0.362641
v 2.585042 8.281568 -0.362641
v 3.775545 8.281568 -0.362617
v 3.775545 6.948650 -0.362617
v 3.775660 3.960385 -6.166933
v 3.775660 1.870383 -6.166933
v 2.585158 1.870383 -6.166958
v 2.590909 3.960385 -6.166958
v 2.590909 6.948650 -6.166958
v 2.585158 8.281568 -6.166958
v 3.775660 8.281568 -6.166933
v 3.775660 6.948650 -6.166933
v 3.037488 6.948650 0.850007
v 3.037429 6.948650 3.765787
v 3.037429 2.349326 3.765787
v 3.037488 2.349326 0.850007
v 2.596546 6.948650 -0.362641
v 3.775522 3.956653 0.850020
v 3.037488 3.954479 0.850007
v 3.037429 3.932235 3.765787
v 3.775464 3.907985 3.765803
v 2.590871 3.960385 -4.232186
v 2.585117 1.870383 -4.232186
v 3.775623 1.870383 -4.232163
v 3.775623 3.960385 -4.232163
v 2.590832 3.960385 -2.297414
v 2.585081 1.870383 -2.297414
v 3.775584 1.870383 -2.297390
v 3.775584 3.960385 -2.297390
vt 0.680941 0.813668
vt 0.680942 0.754628
vt 0.784592 0.754629
vt 0.784593 0.813670
vt 0.823172 0.913060
vt 0.823575 0.972100
vt 0.647092 0.973309
vt 0.646778 0.914268
vt 0.597847 0.695588
vt 0.597850 0.754628
vt 0.494199 0.754637
vt 0.494195 0.695595
vt 0.823310 0.695609
vt 0.823521 0.636567
vt 1.000000 0.637422
vt 0.999714 0.696463
vt 0.521641 0.612553
vt 0.698105 0.636197
vt 0.521647 0.636303
vt 0.521648 0.000119
vt 0.698110 0.000293
vt 0.698020 0.103940
vt 0.521573 0.103768
vt 0.502381 0.973873
vt 0.502283 0.914832
vt 0.377007 0.000036
vt 0.376958 0.103686
vt 0.678779 0.695282
vt 0.678845 0.636240
vt 0.377018 0.612602
vt 0.377022 0.636360
vt 0.154508 0.913224
vt 0.154174 0.972264
vt 0.125257 0.972100
vt 0.125597 0.913060
vt 0.000018 0.000000
vt 0.028936 0.000000
vt 0.028935 0.103648
vt 0.000015 0.103651
vt 0.302058 0.696463
vt 0.301755 0.637422
vt 0.330673 0.637272
vt 0.330968 0.696313
vt 0.028975 0.532571
vt 0.028921 0.636220
vt 0.000000 0.636203
vt 0.000059 0.532553
vt 0.932791 0.754628
vt 0.932792 0.813669
vt 0.697907 0.252140
vt 0.521474 0.251968
vt 0.376888 0.251878
vt 0.028921 0.251852
vt 0.000010 0.251851
vt 0.746048 0.695585
vt 0.746049 0.754627
vt 0.029026 0.384366
vt 0.000116 0.384353
vt 0.185101 0.817519
vt 0.186228 0.672918
vt 0.264736 0.672929
vt 0.264701 0.817536
vt 0.697999 0.384352
vt 0.521566 0.384464
vt 0.521542 0.318363
vt 0.697968 0.318248
vt 0.998896 0.754628
vt 0.998896 0.813670
vt 0.697851 0.318248
vt 0.521424 0.318072
vt 0.376851 0.317978
vt 0.028913 0.317965
vt 0.000000 0.317956
vt 0.812153 0.695585
vt 0.812153 0.754627
vt 0.029049 0.318253
vt 0.000137 0.318248
vt 0.376982 0.384507
vt 0.376976 0.318405
vt 0.316854 0.636343
vt 0.316849 0.532693
vt 0.377000 0.532885
vt 0.618704 0.695286
vt 0.618643 0.636245
vt 0.316805 0.103666
vt 0.316836 0.000016
vt 0.316762 0.251854
vt 0.316747 0.317948
vt 0.442104 0.973850
vt 0.442283 0.914809
vt 0.316866 0.384504
vt 0.316880 0.318409
vt 0.220863 0.636313
vt 0.220890 0.532660
vt 0.522807 0.695488
vt 0.522637 0.636447
vt 0.220848 0.103657
vt 0.220858 0.000004
vt 0.000000 0.817523
vt 0.000038 0.672918
vt 0.036633 0.672923
vt 0.036608 0.817530
vt 0.187432 0.636315
vt 0.264735 0.636327
vt 0.301344 0.672939
vt 0.301296 0.817544
vt 0.264699 0.854138
vt 0.184991 0.854116
vt 0.288034 0.854952
vt 0.436192 0.855311
vt 0.436107 0.914067
vt 0.287869 0.913423
vt 0.532085 0.855354
vt 0.532118 0.914111
vt 0.723869 0.854855
vt 0.872037 0.854021
vt 0.872367 0.912777
vt 0.724141 0.913610
vt 0.000191 0.854021
vt 0.000000 0.912776
vt 0.036612 0.854138
vt 0.036631 0.636325
vt 0.698065 0.532551
vt 0.521621 0.535258
vt 0.124895 0.000003
vt 0.124892 0.103652
vt 0.426645 0.636805
vt 0.426897 0.695846
vt 0.124933 0.532619
vt 0.124888 0.636269
vt 0.628131 0.913959
vt 0.627977 0.855203
vn 0.000000 0.000000 1.000000
vn 0.000000 0.000000 1.000000
vn 0.000000 0.000000 1.000000
vn 0.000000 0.000000 1.000000
vn 0.000000 1.000000 0.000000
vn 0.000000 1.000000 0.000000
vn 0.000000 1.000000 0.000000
vn 0.000000 1.000000 0.000000
vn 0.000000 0.000000 -1.000000
vn 0.000000 0.000000 -1.000000
vn 0.000000 0.000000 -1.000000
vn 0.000000 0.000000 -1.000000
vn 0.000000 -1.000000 0.000000
vn 0.000000 -1.000000 0.000000
vn 0.000000 -1.000000 0.000000
vn 0.000000 -1.000000 0.000000
vn 1.000000 0.000000 0.000000
vn 1.000000 0.000000 0.000000
vn 1.000000 0.000000 0.000000
vn -1.000000 0.000000 0.000000
vn -1.000000 0.000000 0.000000
vn -1.000000 0.000000 0.000000
vn -1.000000 0.000000 0.000000
vn 0.000000 1.000000 0.000000
vn 0.000000 1.000000 0.000000
vn 0.000000 1.000000 0.000000
vn 0.000000 1.000000 0.000000
vn -1.000000 0.000336 -0.000641
vn -1.000000 0.000000 0.000000
vn -1.000000 0.000000 0.000000
vn -1.000000 0.000000 -0.000641
vn 0.000000 -1.000000 0.000000
vn 0.000000 -1.000000 0.000000
vn 0.000000 -1.000000 0.000000
vn 0.000000 -1.000000 0.000000
vn 1.000000 0.000000 0.000000
vn 1.000000 0.000000 0.000000
vn 1.000000 0.000000 0.000000
vn 1.000000 0.000000 0.000000
vn 0.000000 1.000000 0.000000
vn 0.000000 1.000000 0.000000
vn 0.000000 1.000000 0.000000
vn 0.000000 1.000000 0.000000
vn -0.999987 0.001312 0.004822
vn -0.999997 0.002350 0.001038
vn -0.855263 0.281435 0.435109
vn -0.999970 0.000488 0.007752
vn 0.000000 -1.000000 0.000000
vn 0.000000 -1.000000 0.000000
vn 0.000000 -1.000000 0.000000
vn 0.000000 -1.000000 0.000000
vn 1.000000 0.000000 0.000000
vn 1.000000 0.000000 0.000000
vn 1.000000 0.000000 0.000000
vn 1.000000 0.000000 0.000000
vn 0.000000 0.000000 1.000000
vn 0.000000 0.000000 1.000000
vn 0.000000 0.000000 1.000000
vn 0.000000 0.000000 1.000000
vn -1.000000 0.000000 0.000000
vn -1.000000 0.000000 0.000000
vn -1.000000 0.000000 0.000000
vn -1.000000 0.000000 0.000000
vn -1.000000 0.000000 -0.000641
vn -1.000000 0.000000 0.000000
vn -1.000000 0.000000 0.000000
vn -1.000000 -0.000122 -0.000427
vn -0.999970 0.000488 0.007752
vn -0.855263 0.281435 0.435109
vn -0.944772 -0.001618 0.327723
vn -0.999966 -0.000580 0.008240
vn 0.000000 0.000000 -1.000000
vn 0.000000 0.000000 -1.000000
vn 0.000000 0.000000 -1.000000
vn 0.000000 0.000000 -1.000000
vn 1.000000 0.000000 0.000000
vn 1.000000 0.000000 0.000000
vn 1.000000 0.000000 0.000000
vn 1.000000 0.000000 0.000000
vn 1.000000 0.000000 0.000000
vn 1.000000 0.000000 0.000000
vn 1.000000 0.000000 0.000000
vn 1.000000 0.000000 0.000000
vn 1.000000 0.000000 0.000000
vn 1.000000 0.000000 0.000000
vn 1.000000 0.000000 0.000000
vn 1.000000 0.000000 0.000000
vn 0.000000 0.000000 1.000000
vn 0.000000 0.000000 1.000000
vn 0.000000 0.000000 1.000000
vn 0.000000 0.000000 1.000000
vn -1.000000 0.000000 0.000000
vn -1.000000 0.000000 0.000000
vn -1.000000 0.000000 0.000000
vn -1.000000 0.000000 0.000000
vn -1.000000 -0.000122 -0.000427
vn -1.000000 0.000000 0.000000
vn -1.000000 0.000000 0.000000
vn -1.000000 0.000000 0.000000
vn -0.999966 -0.000580 0.008240
vn -0.944772 -0.001618 0.327723
vn -0.999998 -0.002075 0.000000
vn -0.999986 -0.002075 0.004822
vn 0.000000 0.000000 -1.000000
vn 0.000000 0.000000 -1.000000
vn 0.000000 0.000000 -1.000000
vn 0.000000 0.000000 -1.000000
vn 1.000000 0.000000 0.000000
vn 1.000000 0.000000 0.000000
vn 1.000000 0.000000 0.000000
vn 1.000000 0.000000 0.000000
vn 1.000000 0.000000 0.000000
vn 1.000000 0.000000 0.000000
vn 1.000000 0.000000 0.000000
vn 1.000000 0.000000 0.000000
vn 1.000000 0.000000 0.000000
vn 1.000000 0.000000 0.000000
vn 1.000000 0.000000 0.000000
vn 1.000000 0.000000 0.000000
vn 0.000000 -1.000000 0.000000
vn 0.000000 -1.000000 0.000000
vn 0.000000 -1.000000 0.000000
vn 0.000000 -1.000000 0.000000
vn -0.975447 0.220231 -0.001343
vn -0.999997 0.002136 -0.000855
vn -1.000000 0.000336 -0.000641
vn -1.000000 0.000000 -0.000641
vn -0.999999 -0.001465 -0.000916
vn -0.975447 0.220231 -0.001343
vn -1.000000 0.000000 -0.000641
vn -1.000000 -0.000122 -0.000427
vn -0.999998 -0.001709 -0.000366
vn -0.999999 -0.001465 -0.000916
vn -1.000000 -0.000122 -0.000427
vn -1.000000 0.000000 0.000000
vn 0.000000 1.000000 0.000000
vn 0.000000 1.000000 0.000000
vn 0.000000 1.000000 0.000000
vn 0.000000 1.000000 0.000000
vn 1.000000 0.000000 0.000000
vn 1.000000 0.000000 0.000000
vn 1.000000 0.000000 0.000000
vn 1.000000 0.000000 0.000000
vn 1.000000 0.000000 0.000000
vn 1.000000 0.000000 0.000000
vn 1.000000 0.000000 0.000000
vn 1.000000 0.000000 0.000000
vn 0.000000 -1.000000 0.000000
vn 0.000000 -1.000000 0.000000
vn 0.000000 -1.000000 0.000000
vn 0.000000 -1.000000 0.000000
vn -0.868928 0.494939 0.000000
vn -0.999996 0.002686 0.000000
vn -0.999997 0.002136 -0.000855
vn -0.975447 0.220231 -0.001343
vn -0.999998 -0.002075 0.000000
vn -0.944772 -0.001618 0.327723
vn -0.999999 -0.001465 -0.000916
vn -0.999998 -0.001709 -0.000366
vn 0.000000 1.000000 0.000000
vn 0.000000 1.000000 0.000000
vn 0.000000 1.000000 0.000000
vn 0.000000 1.000000 0.000000
vn 1.000000 0.000000 0.000000
vn 1.000000 0.000000 0.000000
vn 1.000000 0.000000 0.000000
vn 1.000000 0.000000 0.000000
vn 0.000000 -1.000000 0.000000
vn 0.000000 -1.000000 0.000000
vn 0.000000 -1.000000 0.000000
vn 0.000000 -1.000000 0.000000
vn 0.000000 0.000000 -1.000000
vn 0.000000 0.000000 -1.000000
vn 0.000000 0.000000 -1.000000
vn 0.000000 0.000000 -1.000000
vn 0.000000 1.000000 0.000000
vn 0.000000 1.000000 0.000000
vn 0.000000 1.000000 0.000000
vn 0.000000 1.000000 0.000000
vn 0.000000 0.000000 1.000000
vn 0.000000 0.000000 1.000000
vn 0.000000 0.000000 1.000000
vn 0.000000 0.000000 1.000000
vn 0.000000 0.000000 -1.000000
vn 0.000000 0.000000 -1.000000
vn 0.000000 0.000000 -1.000000
vn 0.000000 0.000000 -1.000000
vn 0.000000 1.000000 0.000000
vn 0.000000 1.000000 0.000000
vn -0.868928 0.494939 0.000000
vn -0.975447 0.220231 -0.001343
vn 0.000000 0.000000 1.000000
vn 0.000000 0.000000 1.000000
vn -0.944772 -0.001618 0.327723
vn -0.855263 0.281435 0.435109
vn 0.000000 -1.000000 0.000000
vn 0.000000 -1.000000 0.000000
vn 0.000000 -1.000000 0.000000
vn 0.000000 -1.000000 0.000000
vn 1.000000 0.000000 0.000000
vn 1.000000 0.000000 0.000000
vn 1.000000 0.000000 0.000000
vn 1.000000 0.000000 0.000000
vn 0.000000 0.000000 1.000000
vn 0.000000 0.000000 1.000000
vn 0.000000 0.000000 1.000000
vn 0.000000 0.000000 1.000000
vn 1.000000 0.000000 0.000000
vn 1.000000 0.000000 0.000000
vn 1.000000 0.000000 0.000000
vn 1.000000 0.000000 0.000000
vn 0.000000 0.000000 -1.000000
vn 0.000000 0.000000 -1.000000
vn 0.000000 0.000000 -1.000000
vn 0.000000 0.000000 -1.000000
vn 1.000000 0.000000 0.000000
vn 1.000000 0.000000 0.000000
vn 1.000000 0.000000 0.000000
vn 1.000000 0.000000 0.000000
vn 1.000000 0.000000 0.000000
vn 1.000000 0.000000 0.000000
vn 1.000000 0.000000 0.000000
vn 1.000000 0.000000 0.000000
vn 1.000000 0.000000 0.000000
vn 1.000000 0.000000 0.000000
vn 1.000000 0.000000 0.000000
vn -0.855263 0.281435 0.435109
vn -0.999997 0.002350 0.001038
vn -0.999996 0.002686 0.000000
vn -0.868928 0.494939 0.000000
vn 0.000000 -1.000000 0.000000
vn 0.000000 -1.000000 0.000000
vn 0.000000 -1.000000 0.000000
vn 0.000000 -1.000000 0.000000
vn 1.000000 0.000000 0.000000
vn 1.000000 0.000000 0.000000
vn 1.000000 0.000000 0.000000
vn 1.000000 0.000000 0.000000
vn -0.868928 0.494939 0.000000
vn 0.000000 1.000000 0.000000
vn 0.000000 1.000000 0.000000
vn -0.855263 0.281435 0.435109
vn -0.868928 0.494939 0.000000
vn -0.999996 0.002686 0.000000
vn -0.999996 0.002686 0.000000
vn -0.868928 0.494939 0.000000
vn 0.000000 -1.000000 0.000000
vn 0.000000 -1.000000 0.000000
vn 0.000000 -1.000000 0.000000
vn 0.000000 -1.000000 0.000000
vn 1.000000 0.000000 0.000000
vn 1.000000 0.000000 0.000000
vn 1.000000 0.000000 0.000000
vn 1.000000 0.000000 0.000000
vn -0.868928 0.494939 0.000000
vn 0.000000 1.000000 0.000000
vn 0.000000 1.000000 0.000000
vn -0.868928 0.494939 0.000000
s off
g frontSideWallLP:default1
usemtl initialShadingGroup
f 1/1/1 2/2/2 18/3/3 19/4/4
f 3/5/5 4/6/6 9/7/7 10/8/8
f 22/9/9 23/10/10 8/11/11 7/12/12
f 11/13/13 12/14/14 2/15/15 1/16/16
f 17/17/17 2/18/18 12/19/19
f 11/20/20 1/21/21 19/22/22 20/23/23
f 10/8/24 9/7/25 13/24/26 14/25/27
f 15/26/28 11/20/29 20/23/30 21/27/31
f 15/28/32 16/29/33 12/14/34 11/13/35
f 24/30/36 17/17/37 12/19/38 16/31/39
f 46/32/40 47/33/41 6/34/42 5/35/43
f 7/36/44 43/37/45 44/38/46 22/39/47
f 7/40/48 8/41/49 42/42/50 43/43/51
f 41/44/52 42/45/53 8/46/54 23/47/55
f 19/4/56 18/3/57 26/48/58 27/49/59
f 20/23/60 19/22/61 27/50/62 28/51/63
f 21/27/64 20/23/65 28/51/66 29/52/67
f 22/39/68 44/38/69 45/53/70 30/54/71
f 30/55/72 31/56/73 23/10/74 22/9/75
f 48/57/76 41/44/77 23/47/78 31/58/79
f 55/59/80 56/60/81 51/61/82 52/62/83
f 26/63/84 25/64/85 9/65/86 4/66/87
f 27/49/88 26/48/89 4/67/90 3/68/91
f 28/51/92 27/50/93 3/69/94 10/70/95
f 29/52/96 28/51/97 10/70/98 14/71/99
f 30/54/100 45/53/101 46/72/102 5/73/103
f 5/74/104 6/75/105 31/56/106 30/55/107
f 47/76/108 48/57/109 31/58/110 6/77/111
f 9/65/112 25/64/113 32/78/114 13/79/115
f 24/30/116 34/80/117 33/81/118 54/82/119
f 35/83/120 34/84/121 16/29/122 15/28/123
f 36/85/124 35/86/125 15/26/126 21/27/127
f 37/87/128 36/85/129 21/27/130 29/52/131
f 38/88/132 37/87/133 29/52/134 14/71/135
f 14/25/136 13/24/137 39/89/138 38/90/139
f 13/79/140 32/78/141 40/91/142 39/92/143
f 33/81/144 34/80/145 64/93/146 65/94/147
f 63/95/148 64/96/149 34/84/150 35/83/151
f 62/97/152 63/98/153 35/86/154 36/85/155
f 46/72/156 45/53/157 37/87/158 38/88/159
f 38/90/160 39/89/161 47/33/162 46/32/163
f 39/92/164 40/91/165 48/57/166 47/76/167
f 32/99/168 25/100/169 50/101/170 49/102/171
f 56/60/172 57/103/173 17/104/174 51/61/175
f 17/105/176 24/106/177 52/62/178 51/61/179
f 24/107/180 54/108/181 55/59/182 52/62/183
f 40/109/184 33/110/185 36/111/186 53/112/187
f 33/110/188 65/113/189 62/114/190 36/111/191
f 41/115/192 48/116/193 45/117/194 44/118/195
f 48/119/196 40/109/197 53/112/198 45/120/199
f 32/78/200 54/82/201 33/81/202 40/91/203
f 55/59/204 54/108/205 32/121/206 49/102/207
f 49/102/208 50/101/209 56/60/210 55/59/211
f 25/122/212 57/103/213 56/60/214 50/101/215
f 18/123/216 57/124/217 25/64/218 26/63/219
f 18/123/220 2/18/221 17/17/222 57/124/223
f 24/30/224 16/31/225 34/80/226
f 44/38/227 43/37/228 59/125/229 58/126/230
f 43/43/231 42/42/232 60/127/233 59/128/234
f 61/129/235 60/130/236 42/45/237 41/44/238
f 58/131/239 61/132/240 41/115/241 44/118/242
f 58/126/243 59/125/244 63/98/245 62/97/246
f 59/128/247 60/127/248 64/96/249 63/95/250
f 65/94/251 64/93/252 60/130/253 61/129/254
f 62/114/255 65/113/256 61/132/257 58/131/258
