# author: headus 3D tools
#  using: ply2obj v1.12
#   from: uvlayout v2.11.04
# 104 vertices
v 0.097350 -2.108640 4.183455
v 0.097350 2.569991 4.183455
v 0.097350 -2.108640 -0.033826
v 0.097350 2.569991 -0.033826
v 0.097350 2.550975 4.183455
v 0.097350 8.388492 4.183455
v 0.097350 2.550975 -0.033826
v 0.097350 8.388492 -0.033826
v -0.099010 -2.004886 2.791974
v 0.099008 -2.004886 2.791974
v -0.099010 0.830152 -0.043063
v 0.099008 0.830152 -0.043063
v -0.099010 0.647490 -0.225727
v 0.099008 0.647490 -0.225727
v -0.099010 -2.187547 2.609311
v 0.099008 -2.187547 2.609311
v -0.099010 -0.532867 4.118694
v 0.099008 -0.532867 4.118694
v -0.099010 2.156872 1.428955
v 0.099008 2.156872 1.428955
v -0.099010 1.974212 1.246294
v 0.099008 1.974212 1.246294
v -0.099010 -0.715528 3.936033
v 0.099008 -0.715528 3.936033
v -0.024975 -0.468153 3.965757
v 0.173041 -0.468153 3.965757
v -0.024975 -2.003939 2.429974
v 0.173041 -2.003939 2.429974
v -0.024975 -2.186598 2.612635
v 0.173041 -2.186598 2.612635
v -0.024975 -0.650814 4.148419
v 0.173041 -0.650814 4.148419
v -0.024975 2.043701 3.822862
v 0.173041 2.043701 3.822862
v -0.024975 -1.861041 -0.081882
v 0.173041 -1.861041 -0.081882
v -0.024975 -2.043704 0.100780
v 0.173041 -2.043704 0.100780
v -0.024975 1.861040 4.005525
v 0.173041 1.861040 4.005525
v -0.099010 -1.958913 1.328961
v 0.099008 -1.958913 1.328961
v -0.099010 -0.632862 0.002910
v 0.099008 -0.632862 0.002910
v -0.099010 -0.815522 -0.179753
v 0.099008 -0.815522 -0.179753
v -0.099010 -2.141573 1.146300
v 0.099008 -2.141573 1.146300
v -0.024975 1.066926 4.072857
v 0.173041 1.066926 4.072857
v -0.024975 -2.111036 0.894897
v 0.173041 -2.111036 0.894897
v -0.024975 -2.293698 1.077557
v 0.173041 -2.293698 1.077557
v -0.024975 0.884262 4.255517
v 0.173041 0.884262 4.255517
v -0.218491 2.130597 0.125800
v 0.218491 2.130597 0.125800
v -0.218491 2.130597 4.183455
v 0.218491 2.130597 4.183455
v -0.218491 2.700654 4.183455
v 0.218491 2.700654 4.183455
v -0.218491 2.700654 0.125800
v 0.218491 2.700654 0.125800
v -0.024975 2.065003 2.568432
v 0.173041 2.065003 2.568432
v -0.024975 -0.606611 -0.103182
v 0.173041 -0.606611 -0.103182
v -0.024975 -0.789274 0.079481
v 0.173041 -0.789274 0.079481
v -0.024975 1.882340 2.751096
v 0.173041 1.882340 2.751096
v -0.024975 2.166220 1.320063
v 0.173041 2.166220 1.320063
v -0.024975 0.641758 -0.204400
v 0.173041 0.641758 -0.204400
v -0.024975 0.459095 -0.021738
v 0.173041 0.459095 -0.021738
v -0.024975 1.983557 1.502726
v 0.173041 1.983557 1.502726
v -0.099010 -1.814934 3.998066
v 0.099008 -1.814934 3.998066
v -0.099010 2.036241 0.146890
v 0.099008 2.036241 0.146890
v -0.099010 1.853581 -0.035775
v 0.099008 1.853581 -0.035775
v -0.099010 -1.997595 3.815403
v 0.099008 -1.997595 3.815403
v -0.099010 0.800020 4.148487
v 0.099008 0.800020 4.148487
v -0.099010 2.186663 2.761843
v 0.099008 2.186663 2.761843
v -0.099010 2.004001 2.579179
v 0.099008 2.004001 2.579179
v -0.099010 0.617357 3.965824
v 0.099008 0.617357 3.965824
v -0.218491 -2.036758 0.051812
v 0.218491 -2.036758 0.051812
v -0.218491 8.437112 0.051812
v 0.218491 8.437112 0.051812
v -0.218491 8.437112 -0.518245
v 0.218491 8.437112 -0.518245
v -0.218491 -2.036758 -0.518245
v 0.218491 -2.036758 -0.518245
# 176 normals
vn -1.000000 0.000000 0.000000
vn -1.000000 0.000000 0.000000
vn -1.000000 0.000000 0.000000
vn -1.000000 0.000000 0.000000
vn -1.000000 0.000000 0.000000
vn -1.000000 0.000000 0.000000
vn -1.000000 0.000000 0.000000
vn -1.000000 0.000000 0.000000
vn 0.000000 0.707044 0.707044
vn 0.000000 0.707044 0.707044
vn 0.000000 0.707044 0.707044
vn 0.000000 0.707044 0.707044
vn 0.000000 -0.707044 -0.707044
vn 0.000000 -0.707044 -0.707044
vn 0.000000 -0.707044 -0.707044
vn 0.000000 -0.707044 -0.707044
vn -1.000000 0.000000 0.000000
vn -1.000000 0.000000 0.000000
vn -1.000000 0.000000 0.000000
vn -1.000000 0.000000 0.000000
vn 0.000000 0.707044 0.707044
vn 0.000000 0.707044 0.707044
vn 0.000000 0.707044 0.707044
vn 0.000000 0.707044 0.707044
vn 0.000000 -0.707044 -0.707044
vn 0.000000 -0.707044 -0.707044
vn 0.000000 -0.707044 -0.707044
vn 0.000000 -0.707044 -0.707044
vn -1.000000 0.000000 0.000000
vn -1.000000 0.000000 0.000000
vn -1.000000 0.000000 0.000000
vn -1.000000 0.000000 0.000000
vn 0.000000 0.707044 -0.707044
vn 0.000000 0.707044 -0.707044
vn 0.000000 0.707044 -0.707044
vn 0.000000 0.707044 -0.707044
vn 0.000000 -0.707044 0.707044
vn 0.000000 -0.707044 0.707044
vn 0.000000 -0.707044 0.707044
vn 0.000000 -0.707044 0.707044
vn -1.000000 0.000000 0.000000
vn -1.000000 0.000000 0.000000
vn -1.000000 0.000000 0.000000
vn -1.000000 0.000000 0.000000
vn 0.000000 0.707044 -0.707044
vn 0.000000 0.707044 -0.707044
vn 0.000000 0.707044 -0.707044
vn 0.000000 0.707044 -0.707044
vn 0.000000 -0.707044 0.707044
vn 0.000000 -0.707044 0.707044
vn 0.000000 -0.707044 0.707044
vn 0.000000 -0.707044 0.707044
vn -1.000000 0.000000 0.000000
vn -1.000000 0.000000 0.000000
vn -1.000000 0.000000 0.000000
vn -1.000000 0.000000 0.000000
vn 0.000000 0.707044 0.707044
vn 0.000000 0.707044 0.707044
vn 0.000000 0.707044 0.707044
vn 0.000000 0.707044 0.707044
vn 0.000000 -0.707044 -0.707044
vn 0.000000 -0.707044 -0.707044
vn 0.000000 -0.707044 -0.707044
vn 0.000000 -0.707044 -0.707044
vn -1.000000 0.000000 0.000000
vn -1.000000 0.000000 0.000000
vn -1.000000 0.000000 0.000000
vn -1.000000 0.000000 0.000000
vn 0.000000 0.707044 -0.707044
vn 0.000000 0.707044 -0.707044
vn 0.000000 0.707044 -0.707044
vn 0.000000 0.707044 -0.707044
vn 0.000000 -0.707044 0.707044
vn 0.000000 -0.707044 0.707044
vn 0.000000 -0.707044 0.707044
vn 0.000000 -0.707044 0.707044
vn -1.000000 0.000000 0.000000
vn -1.000000 0.000000 0.000000
vn -1.000000 0.000000 0.000000
vn -1.000000 0.000000 0.000000
vn 0.000000 -1.000000 0.000000
vn 0.000000 -1.000000 0.000000
vn 0.000000 -1.000000 0.000000
vn 0.000000 -1.000000 0.000000
vn 0.000000 0.000000 1.000000
vn 0.000000 0.000000 1.000000
vn 0.000000 0.000000 1.000000
vn 0.000000 0.000000 1.000000
vn 0.000000 1.000000 0.000000
vn 0.000000 1.000000 0.000000
vn 0.000000 1.000000 0.000000
vn 0.000000 1.000000 0.000000
vn 0.000000 0.000000 -1.000000
vn 0.000000 0.000000 -1.000000
vn 0.000000 0.000000 -1.000000
vn 0.000000 0.000000 -1.000000
vn 1.000000 0.000000 0.000000
vn 1.000000 0.000000 0.000000
vn 1.000000 0.000000 0.000000
vn 1.000000 0.000000 0.000000
vn -1.000000 0.000000 0.000000
vn -1.000000 0.000000 0.000000
vn -1.000000 0.000000 0.000000
vn -1.000000 0.000000 0.000000
vn 0.000000 0.707044 -0.707044
vn 0.000000 0.707044 -0.707044
vn 0.000000 0.707044 -0.707044
vn 0.000000 0.707044 -0.707044
vn 0.000000 -0.707044 0.707044
vn 0.000000 -0.707044 0.707044
vn 0.000000 -0.707044 0.707044
vn 0.000000 -0.707044 0.707044
vn -1.000000 0.000000 0.000000
vn -1.000000 0.000000 0.000000
vn -1.000000 0.000000 0.000000
vn -1.000000 0.000000 0.000000
vn 0.000000 0.707044 -0.707044
vn 0.000000 0.707044 -0.707044
vn 0.000000 0.707044 -0.707044
vn 0.000000 0.707044 -0.707044
vn 0.000000 -0.707044 0.707044
vn 0.000000 -0.707044 0.707044
vn 0.000000 -0.707044 0.707044
vn 0.000000 -0.707044 0.707044
vn -1.000000 0.000000 0.000000
vn -1.000000 0.000000 0.000000
vn -1.000000 0.000000 0.000000
vn -1.000000 0.000000 0.000000
vn 0.000000 0.707044 0.707044
vn 0.000000 0.707044 0.707044
vn 0.000000 0.707044 0.707044
vn 0.000000 0.707044 0.707044
vn 0.000000 -0.707044 -0.707044
vn 0.000000 -0.707044 -0.707044
vn 0.000000 -0.707044 -0.707044
vn 0.000000 -0.707044 -0.707044
vn -1.000000 0.000000 0.000000
vn -1.000000 0.000000 0.000000
vn -1.000000 0.000000 0.000000
vn -1.000000 0.000000 0.000000
vn 0.000000 0.707044 0.707044
vn 0.000000 0.707044 0.707044
vn 0.000000 0.707044 0.707044
vn 0.000000 0.707044 0.707044
vn 0.000000 -0.707044 -0.707044
vn 0.000000 -0.707044 -0.707044
vn 0.000000 -0.707044 -0.707044
vn 0.000000 -0.707044 -0.707044
vn -1.000000 0.000000 0.000000
vn -1.000000 0.000000 0.000000
vn -1.000000 0.000000 0.000000
vn -1.000000 0.000000 0.000000
vn 0.000000 0.000000 1.000000
vn 0.000000 0.000000 1.000000
vn 0.000000 0.000000 1.000000
vn 0.000000 0.000000 1.000000
vn 0.000000 1.000000 0.000000
vn 0.000000 1.000000 0.000000
vn 0.000000 1.000000 0.000000
vn 0.000000 1.000000 0.000000
vn 0.000000 0.000000 -1.000000
vn 0.000000 0.000000 -1.000000
vn 0.000000 0.000000 -1.000000
vn 0.000000 0.000000 -1.000000
vn 0.000000 -1.000000 0.000000
vn 0.000000 -1.000000 0.000000
vn 0.000000 -1.000000 0.000000
vn 0.000000 -1.000000 0.000000
vn 1.000000 0.000000 0.000000
vn 1.000000 0.000000 0.000000
vn 1.000000 0.000000 0.000000
vn 1.000000 0.000000 0.000000
vn -1.000000 0.000000 0.000000
vn -1.000000 0.000000 0.000000
vn -1.000000 0.000000 0.000000
vn -1.000000 0.000000 0.000000
# 116 uv coords
vt 0.837295 0.996211
vt 0.820312 0.996211
vt 0.820312 0.652344
vt 0.837295 0.652344
vt 0.859450 0.996211
vt 0.859450 0.652344
vt 0.876433 0.652344
vt 0.876433 0.996211
vt 0.600968 0.504955
vt 0.583985 0.504955
vt 0.583986 0.178711
vt 0.600967 0.178711
vt 0.623123 0.504955
vt 0.623122 0.178711
vt 0.640106 0.178711
vt 0.640105 0.504955
vt 0.897843 0.364989
vt 0.880859 0.364989
vt 0.880859 0.178711
vt 0.897843 0.178711
vt 0.919996 0.364989
vt 0.919996 0.178711
vt 0.936980 0.178711
vt 0.936980 0.364989
vt 0.958389 0.652325
vt 0.941406 0.652325
vt 0.941406 0.178711
vt 0.958389 0.178711
vt 0.980544 0.652325
vt 0.980544 0.178711
vt 0.997527 0.178711
vt 0.997527 0.652325
vt 0.584366 0.996778
vt 0.567383 0.996778
vt 0.567383 0.835938
vt 0.584366 0.835938
vt 0.606520 0.996778
vt 0.606520 0.835938
vt 0.623503 0.835938
vt 0.623503 0.996778
vt 0.837295 0.564173
vt 0.820312 0.564173
vt 0.820312 0.178711
vt 0.837295 0.178711
vt 0.859450 0.564173
vt 0.859450 0.178711
vt 0.876433 0.178711
vt 0.876433 0.564173
vt 0.523819 0.996897
vt 0.506836 0.996897
vt 0.506836 0.672851
vt 0.523818 0.672851
vt 0.545974 0.996897
vt 0.545973 0.672851
vt 0.562957 0.672851
vt 0.562957 0.996897
vt 0.958389 0.995452
vt 0.941406 0.995452
vt 0.941406 0.810547
vt 0.958389 0.810546
vt 0.980544 0.995452
vt 0.980544 0.810546
vt 0.997527 0.810546
vt 0.997527 0.995451
vt 0.897842 0.996416
vt 0.880860 0.996415
vt 0.880859 0.529297
vt 0.897843 0.529298
vt 0.919998 0.996416
vt 0.919998 0.529297
vt 0.936981 0.529297
vt 0.936982 0.996416
vt 0.661515 0.346901
vt 0.644532 0.346900
vt 0.644532 0.178711
vt 0.661516 0.178711
vt 0.683671 0.346900
vt 0.683671 0.178711
vt 0.700652 0.178711
vt 0.700654 0.346900
vt 0.039431 0.216189
vt 0.088323 0.216189
vt 0.088323 0.564199
vt 0.039431 0.564199
vt 0.125800 0.216189
vt 0.125800 0.564199
vt 0.001953 0.564199
vt 0.001953 0.216189
vt 0.174692 0.216189
vt 0.174692 0.564199
vt 0.174692 0.178711
vt 0.125800 0.178711
vt 0.125800 0.601678
vt 0.174692 0.601678
vt 0.502616 0.996467
vt 0.001953 0.996467
vt 0.001953 0.634766
vt 0.502616 0.634766
vt 0.579980 0.630256
vt 0.178711 0.630256
vt 0.178711 0.268555
vt 0.579980 0.268555
vt 0.949152 0.125800
vt 0.949152 0.174692
vt 0.050845 0.174692
vt 0.050845 0.125800
vt 0.949152 0.088323
vt 0.050845 0.088323
vt 0.949152 0.039431
vt 0.050845 0.039431
vt 0.050845 0.001953
vt 0.949152 0.001953
vt 0.001953 0.039431
vt 0.001953 0.001953
vt 0.998044 0.001953
vt 0.998044 0.039431
# 44 polygons
s off
g group11 pPlane26
f 1/99/1 2/100/2 4/101/3 3/102/4
g group11 pPlane27
f 5/95/5 6/96/6 8/97/7 7/98/8
g group11 pCube150
f 9/1/9 10/2/10 12/3/11 11/4/12
f 13/6/13 14/7/14 16/8/15 15/5/16
f 15/5/17 9/1/18 11/4/19 13/6/20
g group11 pCube152
f 17/9/21 18/10/22 20/11/23 19/12/24
f 21/14/25 22/15/26 24/16/27 23/13/28
f 23/13/29 17/9/30 19/12/31 21/14/32
g group11 pCube157
f 25/17/33 26/18/34 28/19/35 27/20/36
f 29/22/37 30/23/38 32/24/39 31/21/40
f 31/21/41 25/17/42 27/20/43 29/22/44
g group11 pCube153
f 33/25/45 34/26/46 36/27/47 35/28/48
f 37/30/49 38/31/50 40/32/51 39/29/52
f 39/29/53 33/25/54 35/28/55 37/30/56
g group11 pCube149
f 41/33/57 42/34/58 44/35/59 43/36/60
f 45/38/61 46/39/62 48/40/63 47/37/64
f 47/37/65 41/33/66 43/36/67 45/38/68
g group11 pCube155
f 49/41/69 50/42/70 52/43/71 51/44/72
f 53/46/73 54/47/74 56/48/75 55/45/76
f 55/45/77 49/41/78 51/44/79 53/46/80
g group11 pCube160
f 57/82/81 58/85/82 60/86/83 59/83/84
f 59/93/85 60/86/86 62/90/87 61/94/88
f 61/84/89 62/87/90 64/88/91 63/81/92
f 63/91/93 64/89/94 58/85/95 57/92/96
f 58/85/97 64/89/98 62/90/99 60/86/100
f 63/81/101 57/82/102 59/83/103 61/84/104
g group11 pCube154
f 65/49/105 66/50/106 68/51/107 67/52/108
f 69/54/109 70/55/110 72/56/111 71/53/112
f 71/53/113 65/49/114 67/52/115 69/54/116
g group11 pCube156
f 73/57/117 74/58/118 76/59/119 75/60/120
f 77/62/121 78/63/122 80/64/123 79/61/124
f 79/61/125 73/57/126 75/60/127 77/62/128
g group11 pCube151
f 81/65/129 82/66/130 84/67/131 83/68/132
f 85/70/133 86/71/134 88/72/135 87/69/136
f 87/69/137 81/65/138 83/68/139 85/70/140
g group11 pCube158
f 89/73/141 90/74/142 92/75/143 91/76/144
f 93/78/145 94/79/146 96/80/147 95/77/148
f 95/77/149 89/73/150 91/76/151 93/78/152
g group11 pCube159
f 97/107/153 98/103/154 100/106/155 99/108/156
f 99/113/157 100/114/158 102/111/159 101/110/160
f 101/110/161 102/111/162 104/112/163 103/109/164
f 103/109/165 104/112/166 98/115/167 97/116/168
f 98/103/169 104/104/170 102/105/171 100/106/172
f 103/109/173 97/107/174 99/108/175 101/110/176
# h3dt: 104 116 176 44
