# This file uses centimeters as units for non-parametric coordinates.

g default
v 2.971668 3.192302 3.758748
v 3.622520 3.192302 3.758761
v 2.971668 3.352561 3.758748
v 3.622520 3.352561 3.758761
v 2.971725 3.352561 0.859873
v 3.622578 3.352561 0.859886
v 2.971725 3.192302 0.859873
v 3.622578 3.192302 0.859886
vt 0.997065 0.001953
vt 0.997065 0.248542
vt 0.750476 0.248542
vt 0.750476 0.001953
vt 0.747926 0.001953
vt 0.747926 0.248542
vt 0.501337 0.248542
vt 0.501337 0.001953
vt 0.001953 0.501107
vt 0.498893 0.501107
vt 0.498893 0.998047
vt 0.001953 0.998047
vt 0.498893 0.001953
vt 0.498893 0.498893
vt 0.001953 0.498893
vt 0.001953 0.001953
vt 0.867318 0.250756
vt 0.867318 0.367599
vt 0.750476 0.367599
vt 0.750476 0.250756
vt 0.986905 0.250756
vt 0.986905 0.367599
vt 0.870062 0.367599
vt 0.870062 0.250756
vn -0.000020 0.000000 1.000000
vn -0.000020 0.000000 1.000000
vn -0.000020 0.000000 1.000000
vn -0.000020 0.000000 1.000000
vn 0.000000 1.000000 0.000000
vn 0.000000 1.000000 0.000000
vn 0.000000 1.000000 0.000000
vn 0.000000 1.000000 0.000000
vn 0.000020 0.000000 -1.000000
vn 0.000020 0.000000 -1.000000
vn 0.000020 0.000000 -1.000000
vn 0.000020 0.000000 -1.000000
vn 0.000000 -1.000000 0.000000
vn 0.000000 -1.000000 0.000000
vn 0.000000 -1.000000 0.000000
vn 0.000000 -1.000000 0.000000
vn 1.000000 0.000000 0.000020
vn 1.000000 0.000000 0.000020
vn 1.000000 0.000000 0.000020
vn 1.000000 0.000000 0.000020
vn -1.000000 0.000000 -0.000020
vn -1.000000 0.000000 -0.000020
vn -1.000000 0.000000 -0.000020
vn -1.000000 0.000000 -0.000020
s off
g pCube20 shelves
f 1/17/1 2/18/2 4/19/3 3/20/4
f 3/9/5 4/10/6 6/11/7 5/12/8
f 5/21/9 6/22/10 8/23/11 7/24/12
f 7/13/13 8/14/14 2/15/15 1/16/16
f 2/1/17 8/2/18 6/3/19 4/4/20
f 7/5/21 1/6/22 3/7/23 5/8/24
