# This file uses centimeters as units for non-parametric coordinates.

g default
v 3.341410 1.887343 7.659335
v 3.996518 1.887343 7.659348
v 3.341410 8.964365 7.659335
v 3.996518 8.964365 7.659348
v 3.341421 8.964365 7.095840
v 3.996529 8.964365 7.095853
v 3.341421 1.887343 7.095840
v 3.996529 1.887343 7.095853
vt 0.990920 0.255185
vt 0.990920 0.505901
vt 0.740203 0.505901
vt 0.740203 0.255185
vt 0.990919 0.001953
vt 0.990919 0.252670
vt 0.740203 0.252670
vt 0.740203 0.001953
vt 0.895716 0.508416
vt 0.895716 0.584697
vt 0.819436 0.584697
vt 0.819436 0.508416
vt 0.816484 0.508416
vt 0.816484 0.584697
vt 0.740203 0.584697
vt 0.740203 0.508416
vt 0.919981 0.727717
vt 0.919981 0.998047
vt 0.649651 0.998047
vt 0.649651 0.727717
vt 0.376738 0.727717
vt 0.647068 0.727717
vt 0.647068 0.998047
vt 0.376738 0.998047
vn -0.000020 0.000000 1.000000
vn -0.000020 0.000000 1.000000
vn -0.000020 0.000000 1.000000
vn -0.000020 0.000000 1.000000
vn 0.000000 1.000000 0.000000
vn 0.000000 1.000000 0.000000
vn 0.000000 1.000000 0.000000
vn 0.000000 1.000000 0.000000
vn 0.000020 0.000000 -1.000000
vn 0.000020 0.000000 -1.000000
vn 0.000020 0.000000 -1.000000
vn 0.000020 0.000000 -1.000000
vn 0.000000 -1.000000 0.000000
vn 0.000000 -1.000000 0.000000
vn 0.000000 -1.000000 0.000000
vn 0.000000 -1.000000 0.000000
vn 1.000000 0.000000 0.000020
vn 1.000000 0.000000 0.000020
vn 1.000000 0.000000 0.000020
vn 1.000000 0.000000 0.000020
vn -1.000000 0.000000 -0.000020
vn -1.000000 0.000000 -0.000020
vn -1.000000 0.000000 -0.000020
vn -1.000000 0.000000 -0.000020
s off
g pCube46
f 1/17/1 2/18/2 4/19/3 3/20/4
f 3/9/5 4/10/6 6/11/7 5/12/8
f 5/21/9 6/22/10 8/23/11 7/24/12
f 7/13/13 8/14/14 2/15/15 1/16/16
f 2/1/17 8/2/18 6/3/19 4/4/20
f 7/5/21 1/6/22 3/7/23 5/8/24
g default
v 3.435709 1.849710 7.748137
v 3.999203 1.849710 7.748148
v 3.435709 2.447257 7.748137
v 3.999203 2.447257 7.748148
v 3.435998 2.447257 -6.872757
v 3.999493 2.447257 -6.872746
v 3.435998 1.849710 -6.872757
v 3.999493 1.849710 -6.872746
vt 0.373049 0.001953
vt 0.373049 0.373048
vt 0.001953 0.373048
vt 0.001953 0.001953
vt 0.373049 0.375564
vt 0.373049 0.746659
vt 0.001953 0.746659
vt 0.001953 0.375564
vt 0.737104 0.364835
vt 0.737104 0.725201
vt 0.376738 0.725201
vt 0.376738 0.364835
vt 0.737104 0.001953
vt 0.737104 0.362320
vt 0.376738 0.362320
vt 0.376738 0.001953
vt 0.971521 0.583784
vt 0.971521 0.656636
vt 0.898669 0.656636
vt 0.898669 0.583784
vt 0.898669 0.508416
vt 0.971521 0.508416
vt 0.971521 0.581269
vt 0.898669 0.581269
vn -0.000020 0.000000 1.000000
vn -0.000020 0.000000 1.000000
vn -0.000020 0.000000 1.000000
vn -0.000020 0.000000 1.000000
vn 0.000000 1.000000 0.000000
vn 0.000000 1.000000 0.000000
vn 0.000000 1.000000 0.000000
vn 0.000000 1.000000 0.000000
vn 0.000020 0.000000 -1.000000
vn 0.000020 0.000000 -1.000000
vn 0.000020 0.000000 -1.000000
vn 0.000020 0.000000 -1.000000
vn 0.000000 -1.000000 0.000000
vn 0.000000 -1.000000 0.000000
vn 0.000000 -1.000000 0.000000
vn 0.000000 -1.000000 0.000000
vn 1.000000 0.000000 0.000020
vn 1.000000 0.000000 0.000020
vn 1.000000 0.000000 0.000020
vn 1.000000 0.000000 0.000020
vn -1.000000 0.000000 -0.000020
vn -1.000000 0.000000 -0.000020
vn -1.000000 0.000000 -0.000020
vn -1.000000 0.000000 -0.000020
s off
g pCube51
f 9/41/25 10/42/26 12/43/27 11/44/28
f 11/33/29 12/34/30 14/35/31 13/36/32
f 13/45/33 14/46/34 16/47/35 15/48/36
f 15/37/37 16/38/38 10/39/39 9/40/40
f 10/25/41 16/26/42 14/27/43 12/28/44
f 15/29/45 9/30/46 11/31/47 13/32/48
