# This file uses centimeters as units for non-parametric coordinates.

mtllib sidePanelLP.mtl
g default
v -4.125265 4.458259 4.722385
v -3.866944 4.458259 4.722385
v -4.125265 4.458259 7.121059
v -3.866944 4.458259 7.121059
v -4.125265 4.795246 7.121059
v -3.866944 4.795246 7.121059
v -4.125265 4.795246 4.722385
v -3.866944 4.795246 4.722385
vt 0.863248 0.106506
vt 0.863248 0.212525
vt 0.757230 0.106506
vt 0.757230 0.212525
vt 0.651212 0.106506
vt 0.651212 0.212525
vt 0.545194 0.106506
vt 0.545194 0.212525
vt 0.439176 0.106506
vt 0.439176 0.212525
vt 0.863248 0.318543
vt 0.757230 0.318543
vt 0.863248 0.000488
vt 0.757230 0.000488
vn 0.000000 -1.000000 0.000000
vn 0.000000 -1.000000 0.000000
vn 0.000000 -1.000000 0.000000
vn 0.000000 -1.000000 0.000000
vn 0.000000 0.000000 1.000000
vn 0.000000 0.000000 1.000000
vn 0.000000 0.000000 1.000000
vn 0.000000 0.000000 1.000000
vn 0.000000 1.000000 0.000000
vn 0.000000 1.000000 0.000000
vn 0.000000 1.000000 0.000000
vn 0.000000 1.000000 0.000000
vn 0.000000 0.000000 -1.000000
vn 0.000000 0.000000 -1.000000
vn 0.000000 0.000000 -1.000000
vn 0.000000 0.000000 -1.000000
vn 1.000000 0.000000 0.000000
vn 1.000000 0.000000 0.000000
vn 1.000000 0.000000 0.000000
vn 1.000000 0.000000 0.000000
vn -1.000000 0.000000 0.000000
vn -1.000000 0.000000 0.000000
vn -1.000000 0.000000 0.000000
vn -1.000000 0.000000 0.000000
s off
f 1/1/1 2/2/2 4/4/3 3/3/4
f 3/3/5 4/4/6 6/6/7 5/5/8
f 5/5/9 6/6/10 8/8/11 7/7/12
f 7/7/13 8/8/14 2/10/15 1/9/16
f 2/2/17 8/11/18 6/12/19 4/4/20
f 7/13/21 1/1/22 3/3/23 5/14/24
v -3.938556 4.706765 7.121059
v -3.938557 8.157601 7.121059
v -3.938556 4.706765 4.628023
v -3.938557 8.157601 4.628023
vt 0.000488 0.000488
vt 0.438072 0.000488
vt 0.000488 0.438072
vt 0.438072 0.438072
vn -1.000000 -0.000000 0.000000
vn -1.000000 -0.000000 0.000000
vn -1.000000 -0.000000 0.000000
vn -1.000000 -0.000000 0.000000
s off
f 9/15/25 10/16/26 12/18/27 11/17/28
v -4.125265 1.994735 4.678647
v -3.866944 1.994735 4.678647
v -4.125265 8.186342 4.678647
v -3.866944 8.186342 4.678647
v -4.125265 8.186342 4.341660
v -3.866944 8.186342 4.341660
v -4.125265 1.994735 4.341660
v -3.866944 1.994735 4.341660
v -4.125265 5.283832 4.341660
v -4.125265 5.283832 4.678647
v -3.866944 5.283832 4.678647
v -3.866944 5.283832 4.341660
v -4.125265 7.311645 4.315296
v -4.125265 7.311645 4.638172
v -3.866944 7.311645 4.646942
v -3.866944 7.311645 4.321845
v -4.125265 6.449641 4.368152
v -4.125265 6.449641 4.719319
v -3.866944 6.449641 4.710507
v -3.866944 6.449641 4.361571
v -4.125265 4.079256 4.256858
v -4.125265 4.079256 4.623411
v -3.866944 4.079256 4.637133
v -3.866944 4.079256 4.275232
vt 0.674076 0.438720
vt 0.674076 0.607116
vt 0.505679 0.438720
vt 0.505679 0.607116
vt 0.337282 0.438720
vt 0.337282 0.607116
vt 0.168885 0.438720
vt 0.168885 0.607116
vt 0.000488 0.438720
vt 0.000488 0.607116
vt 0.674076 0.775513
vt 0.505679 0.775513
vt 0.674076 0.270323
vt 0.505679 0.270323
vt 0.584620 0.270323
vt 0.258341 0.438720
vt 0.584620 0.438720
vt 0.584620 0.607116
vt 0.258341 0.607116
vt 0.584620 0.775513
vt 0.529469 0.270323
vt 0.313492 0.438720
vt 0.529469 0.438720
vt 0.529469 0.607116
vt 0.313492 0.607116
vt 0.529469 0.775513
vt 0.552913 0.270323
vt 0.290048 0.438720
vt 0.552913 0.438720
vt 0.552913 0.607116
vt 0.290048 0.607116
vt 0.552913 0.775513
vt 0.617382 0.270323
vt 0.225579 0.438720
vt 0.617382 0.438720
vt 0.617382 0.607116
vt 0.225579 0.607116
vt 0.617382 0.775513
vn -0.008511 0.020844 0.999747
vn -0.008503 0.020902 0.999745
vn -0.016958 -0.041219 0.999006
vn -0.016958 -0.041219 0.999006
vn 0.000000 1.000000 0.000000
vn 0.000000 1.000000 0.000000
vn 0.000000 1.000000 0.000000
vn 0.000000 1.000000 0.000000
vn 0.012671 0.026386 -0.999572
vn 0.012671 0.026386 -0.999572
vn 0.006352 -0.013366 -0.999891
vn 0.006355 -0.013348 -0.999891
vn 0.000000 -1.000000 0.000000
vn 0.000000 -1.000000 0.000000
vn 0.000000 -1.000000 0.000000
vn 0.000000 -1.000000 0.000000
vn 1.000000 -0.000000 0.000000
vn 1.000000 -0.000000 0.000000
vn 1.000000 0.000000 0.000000
vn 1.000000 0.000000 0.000000
vn -1.000000 0.000000 -0.000000
vn -1.000000 0.000000 -0.000000
vn -1.000000 0.000000 -0.000000
vn -1.000000 0.000000 -0.000000
vn -1.000000 0.000000 0.000000
vn -1.000000 0.000000 0.000000
vn -1.000000 0.000000 0.000000
vn -1.000000 0.000000 0.000000
vn -0.026550 0.000010 0.999647
vn -0.026550 -0.000007 0.999647
vn -0.005105 -0.035684 0.999350
vn -0.005105 -0.035684 0.999350
vn 1.000000 -0.000000 0.000000
vn 1.000000 0.000000 0.000000
vn 1.000000 0.000000 0.000000
vn 1.000000 0.000000 0.000000
vn 0.011797 0.041649 -0.999063
vn 0.011797 0.041649 -0.999063
vn 0.035542 0.000024 -0.999368
vn 0.035542 -0.000031 -0.999368
vn -1.000000 -0.000000 -0.000000
vn -1.000000 -0.000000 -0.000000
vn 0.009845 0.017758 0.999794
vn 0.009835 0.017822 0.999793
vn 1.000000 0.000000 0.000000
vn 1.000000 -0.000000 0.000000
vn -0.007347 -0.011394 -0.999908
vn -0.007351 -0.011374 -0.999908
vn -1.000000 0.000000 0.000000
vn -1.000000 0.000000 0.000000
vn -0.026543 0.023193 0.999379
vn -0.026543 0.023193 0.999379
vn 1.000000 0.000000 0.000000
vn 1.000000 0.000000 0.000000
vn 0.035518 -0.036227 -0.998712
vn 0.035518 -0.036227 -0.998712
s 1
f 26/41/29 27/42/30 16/22/31 15/21/32
s off
f 15/21/33 16/22/34 18/24/35 17/23/36
s 2
f 17/23/37 18/24/38 28/43/39 25/40/40
s off
f 19/25/41 20/26/42 14/28/43 13/27/44
s 3
f 27/42/45 28/44/46 18/30/47 16/22/48
s 4
f 25/39/49 26/41/50 15/21/51 17/32/52
f 33/51/53 34/53/54 22/35/55 21/33/56
s 1
f 34/53/57 35/54/58 23/36/59 22/35/60
s 3
f 35/54/61 36/56/62 24/38/63 23/36/64
s 2
f 21/34/65 24/37/66 36/55/67 33/52/68
s 4
f 29/45/69 30/47/70 26/41/50 25/39/49
s 1
f 30/47/71 31/48/72 27/42/30 26/41/29
s 3
f 31/48/73 32/50/74 28/44/46 27/42/45
s 2
f 25/40/40 28/43/39 32/49/75 29/46/76
s 4
f 21/33/56 22/35/55 30/47/70 29/45/69
s 1
f 22/35/60 23/36/59 31/48/72 30/47/71
s 3
f 23/36/64 24/38/63 32/50/74 31/48/73
s 2
f 29/46/76 32/49/75 24/37/66 21/34/65
s 4
f 19/31/77 13/19/78 34/53/54 33/51/53
s 1
f 13/19/79 14/20/80 35/54/58 34/53/57
s 3
f 14/20/81 20/29/82 36/56/62 35/54/61
s 2
f 33/52/68 36/55/67 20/26/83 19/25/84
v -4.054634 2.883757 7.082777
v -3.937575 2.883757 7.082777
v -4.054634 4.473791 5.492743
v -3.937575 4.473791 5.492743
v -4.054634 4.365811 5.384762
v -3.937575 4.365811 5.384762
v -4.054634 2.775777 6.974796
v -3.937575 2.775777 6.974796
vt 0.757205 0.593109
vt 0.839368 0.593109
vt 0.757205 0.675272
vt 0.839368 0.675272
vt 0.931077 0.419786
vt 0.931077 0.496327
vt 0.854535 0.419786
vt 0.854535 0.496327
vt 0.675043 0.593109
vt 0.675043 0.675272
vn 0.000000 0.707107 0.707107
vn 0.000000 0.707107 0.707107
vn 0.000000 0.707107 0.707107
vn 0.000000 0.707107 0.707107
vn 0.000000 -0.707107 -0.707107
vn 0.000000 -0.707107 -0.707107
vn 0.000000 -0.707107 -0.707107
vn 0.000000 -0.707107 -0.707107
vn -1.000000 0.000001 0.000000
vn -1.000000 0.000001 0.000000
vn -1.000000 0.000001 0.000000
vn -1.000000 0.000001 0.000000
s off
f 37/57/85 38/58/86 40/60/87 39/59/88
f 41/61/89 42/62/90 44/64/91 43/63/92
f 43/65/93 37/57/94 39/59/95 41/66/96
v -4.010870 4.479317 5.428371
v -3.893811 4.479317 5.428371
v -4.010870 3.578134 4.527188
v -3.893811 3.578134 4.527188
v -4.010870 3.470153 4.635169
v -3.893811 3.470153 4.635169
v -4.010870 4.371337 5.536352
v -3.893811 4.371337 5.536352
vt 0.926110 0.155457
vt 0.987966 0.155457
vt 0.926110 0.217312
vt 0.987966 0.217312
vt 0.496799 0.271658
vt 0.496799 0.329281
vt 0.439176 0.271658
vt 0.439176 0.329281
vt 0.864255 0.155457
vt 0.864255 0.217312
vn 0.000000 0.707107 -0.707107
vn 0.000000 0.707107 -0.707107
vn 0.000000 0.707107 -0.707107
vn 0.000000 0.707107 -0.707107
vn 0.000000 -0.707106 0.707107
vn 0.000000 -0.707106 0.707107
vn 0.000000 -0.707106 0.707107
vn 0.000000 -0.707106 0.707107
vn -1.000000 0.000000 0.000000
vn -1.000000 0.000000 0.000000
vn -1.000000 0.000000 0.000000
vn -1.000000 0.000000 0.000000
s off
f 45/67/97 46/68/98 48/70/99 47/69/100
f 49/71/101 50/72/102 52/74/103 51/73/104
f 51/75/105 45/67/106 47/69/107 49/76/108
v -4.010870 4.419482 6.166342
v -3.893811 4.419482 6.166342
v -4.010870 2.840163 4.587023
v -3.893811 2.840163 4.587023
v -4.010870 2.732183 4.695003
v -3.893811 2.732183 4.695003
v -4.010870 4.311502 6.274322
v -3.893811 4.311502 6.274322
vt 0.756928 0.675920
vt 0.838813 0.675920
vt 0.756928 0.757805
vt 0.838813 0.757805
vt 0.903782 0.573259
vt 0.903782 0.496975
vt 0.980066 0.573259
vt 0.980066 0.496975
vt 0.675043 0.675920
vt 0.675043 0.757805
vn 0.000000 0.707107 -0.707106
vn 0.000000 0.707107 -0.707106
vn 0.000000 0.707107 -0.707106
vn 0.000000 0.707107 -0.707106
vn 0.000000 -0.707107 0.707106
vn 0.000000 -0.707107 0.707106
vn 0.000000 -0.707107 0.707106
vn 0.000000 -0.707107 0.707106
vn -1.000000 0.000000 0.000000
vn -1.000000 0.000000 0.000000
vn -1.000000 0.000000 0.000000
vn -1.000000 0.000000 0.000000
s off
f 53/77/109 54/78/110 56/80/111 55/79/112
f 57/81/113 58/82/114 60/84/115 59/83/116
f 59/85/117 53/77/118 55/79/119 57/86/120
v -3.938557 1.958396 7.114905
v -3.938557 4.724160 7.114905
v -3.938557 1.958396 4.621868
v -3.938557 4.724160 4.621868
vt 0.000488 0.607764
vt 0.392236 0.607764
vt 0.000488 0.999512
vt 0.392236 0.999512
vn -1.000000 0.000000 0.000000
vn -1.000000 0.000000 0.000000
vn -1.000000 0.000000 0.000000
vn -1.000000 0.000000 0.000000
s off
f 61/87/121 62/88/122 64/90/123 63/89/124
v -4.010870 4.406891 6.907896
v -3.893811 4.406891 6.907896
v -4.010870 2.098609 4.599614
v -3.893811 2.098609 4.599614
v -4.010870 1.990629 4.707595
v -3.893811 1.990629 4.707595
v -4.010870 4.298910 7.015876
v -3.893811 4.298910 7.015876
vt 0.538171 0.000488
vt 0.637166 0.000488
vt 0.538171 0.099484
vt 0.637166 0.099484
vt 0.730331 0.000488
vt 0.730331 0.092711
vt 0.638108 0.000488
vt 0.638108 0.092711
vt 0.439176 0.000488
vt 0.439176 0.099484
vn 0.000000 0.707107 -0.707107
vn 0.000000 0.707107 -0.707107
vn 0.000000 0.707107 -0.707107
vn 0.000000 0.707107 -0.707107
vn 0.000000 -0.707107 0.707107
vn 0.000000 -0.707107 0.707107
vn 0.000000 -0.707107 0.707107
vn 0.000000 -0.707107 0.707107
vn -1.000000 -0.000001 0.000000
vn -1.000000 -0.000001 0.000000
vn -1.000000 -0.000001 0.000000
vn -1.000000 -0.000001 0.000000
s off
f 65/91/125 66/92/126 68/94/127 67/93/128
f 69/95/129 70/96/130 72/98/131 71/97/132
f 71/99/133 65/91/134 67/93/135 69/100/136
v -4.054634 2.125866 7.011466
v -3.937575 2.125866 7.011466
v -4.054634 4.402481 4.734851
v -3.937575 4.402481 4.734851
v -4.054634 4.294501 4.626871
v -3.937575 4.294501 4.626871
v -4.054634 2.017886 6.903486
v -3.937575 2.017886 6.903486
vt 0.773357 0.319191
vt 0.871671 0.319191
vt 0.773357 0.417505
vt 0.871671 0.417505
vt 0.955843 0.000488
vt 0.955843 0.092076
vt 0.864255 0.000488
vt 0.864255 0.092076
vt 0.675043 0.319191
vt 0.675043 0.417505
vn 0.000000 0.707107 0.707107
vn 0.000000 0.707107 0.707107
vn 0.000000 0.707107 0.707107
vn 0.000000 0.707107 0.707107
vn 0.000000 -0.707107 -0.707107
vn 0.000000 -0.707107 -0.707107
vn 0.000000 -0.707107 -0.707107
vn 0.000000 -0.707107 -0.707107
vn -1.000000 0.000000 0.000000
vn -1.000000 0.000000 0.000000
vn -1.000000 0.000000 0.000000
vn -1.000000 0.000000 0.000000
s off
f 73/101/137 74/102/138 76/104/139 75/103/140
f 77/105/141 78/106/142 80/108/143 79/107/144
f 79/109/145 73/101/146 75/103/147 77/110/148
v -4.054634 3.671690 7.100388
v -3.937575 3.671690 7.100388
v -4.054634 4.491402 6.280675
v -3.937575 4.491402 6.280675
v -4.054634 4.383422 6.172695
v -3.937575 4.383422 6.172695
v -4.054634 3.563710 6.992407
v -3.937575 3.563710 6.992407
vt 0.923248 0.217960
vt 0.982241 0.217960
vt 0.923248 0.276953
vt 0.982241 0.276953
vt 0.498142 0.213172
vt 0.553100 0.213172
vt 0.498142 0.268130
vt 0.553100 0.268130
vt 0.864255 0.217960
vt 0.864255 0.276953
vn 0.000000 0.707106 0.707107
vn 0.000000 0.707106 0.707107
vn 0.000000 0.707106 0.707107
vn 0.000000 0.707106 0.707107
vn 0.000000 -0.707106 -0.707107
vn 0.000000 -0.707106 -0.707107
vn 0.000000 -0.707106 -0.707107
vn 0.000000 -0.707106 -0.707107
vn -1.000000 -0.000001 0.000000
vn -1.000000 -0.000001 0.000000
vn -1.000000 -0.000001 0.000000
vn -1.000000 -0.000001 0.000000
s off
f 81/111/149 82/112/150 84/114/151 83/113/152
f 85/115/153 86/116/154 88/118/155 87/117/156
f 87/119/157 81/111/158 83/113/159 85/120/160
v -4.010870 3.829471 7.055680
v -3.893811 3.829471 7.055680
v -4.010870 1.950825 5.177034
v -3.893811 1.950825 5.177034
v -4.010870 1.842845 5.285015
v -3.893811 1.842845 5.285015
v -4.010870 3.721491 7.163660
v -3.893811 3.721491 7.163660
vt 0.764351 0.418153
vt 0.853660 0.418153
vt 0.764351 0.507461
vt 0.853660 0.507461
vt 0.872679 0.277601
vt 0.955878 0.277601
vt 0.872679 0.360800
vt 0.955878 0.360800
vt 0.675043 0.418153
vt 0.675043 0.507461
vn 0.000000 0.707107 -0.707107
vn 0.000000 0.707107 -0.707107
vn 0.000000 0.707107 -0.707107
vn 0.000000 0.707107 -0.707107
vn 0.000000 -0.707107 0.707107
vn 0.000000 -0.707107 0.707107
vn 0.000000 -0.707107 0.707107
vn 0.000000 -0.707107 0.707107
vn -1.000000 0.000001 0.000000
vn -1.000000 0.000001 0.000000
vn -1.000000 0.000001 0.000000
vn -1.000000 0.000001 0.000000
s off
f 89/121/161 90/122/162 92/124/163 91/123/164
f 93/125/165 94/126/166 96/128/167 95/127/168
f 95/129/169 89/121/170 91/123/171 93/130/172
v -4.010870 2.922013 6.992368
v -3.893811 2.922013 6.992368
v -4.010870 2.014137 6.084492
v -3.893811 2.014137 6.084492
v -4.010870 1.906157 6.192472
v -3.893811 1.906157 6.192472
v -4.010870 2.814033 7.100348
v -3.893811 2.814033 7.100348
vt 0.926340 0.092724
vt 0.988424 0.092724
vt 0.926340 0.154809
vt 0.988424 0.154809
vt 0.497013 0.213172
vt 0.497013 0.271010
vt 0.439176 0.213172
vt 0.439176 0.271010
vt 0.864255 0.092724
vt 0.864255 0.154809
vn 0.000000 0.707107 -0.707106
vn 0.000000 0.707107 -0.707106
vn 0.000000 0.707107 -0.707106
vn 0.000000 0.707107 -0.707106
vn 0.000000 -0.707107 0.707107
vn 0.000000 -0.707107 0.707107
vn 0.000000 -0.707107 0.707107
vn 0.000000 -0.707107 0.707107
vn -1.000000 0.000000 0.000000
vn -1.000000 0.000000 0.000000
vn -1.000000 0.000000 0.000000
vn -1.000000 0.000000 0.000000
s off
f 97/131/173 98/132/174 100/134/175 99/133/176
f 101/135/177 102/136/178 104/138/179 103/137/180
f 103/139/181 97/131/182 99/133/183 101/140/184
v -4.054634 2.040753 5.433631
v -3.937575 2.040753 5.433631
v -4.054634 2.824646 4.649739
v -3.937575 2.824646 4.649739
v -4.054634 2.716666 4.541758
v -3.937575 2.716666 4.541758
v -4.054634 1.932773 5.325651
v -3.937575 1.932773 5.325651
vt 0.930369 0.361448
vt 0.988058 0.361448
vt 0.930369 0.419138
vt 0.988058 0.419138
vt 0.553869 0.213172
vt 0.607612 0.213172
vt 0.553869 0.266916
vt 0.607612 0.266916
vt 0.872679 0.361448
vt 0.872679 0.419138
vn 0.000000 0.707107 0.707106
vn 0.000000 0.707107 0.707106
vn 0.000000 0.707107 0.707106
vn 0.000000 0.707107 0.707106
vn 0.000000 -0.707107 -0.707107
vn 0.000000 -0.707107 -0.707107
vn 0.000000 -0.707107 -0.707107
vn 0.000000 -0.707107 -0.707107
vn -1.000000 0.000000 0.000000
vn -1.000000 0.000000 0.000000
vn -1.000000 0.000000 0.000000
vn -1.000000 0.000000 0.000000
s off
f 105/141/185 106/142/186 108/144/187 107/143/188
f 109/145/189 110/146/190 112/148/191 111/147/192
f 111/149/193 105/141/194 107/143/195 109/150/196
v -4.054634 2.013576 6.298488
v -3.937575 2.013576 6.298488
v -4.054634 3.689502 4.622561
v -3.937575 3.689502 4.622561
v -4.054634 3.581522 4.514581
v -3.937575 3.581522 4.514581
v -4.054634 1.905595 6.190507
v -3.937575 1.905595 6.190507
vt 0.759395 0.508109
vt 0.843748 0.508109
vt 0.759395 0.592462
vt 0.843748 0.592462
vt 0.753625 0.213172
vt 0.753625 0.291754
vt 0.675043 0.213172
vt 0.675043 0.291754
vt 0.675043 0.508109
vt 0.675043 0.592462
vn 0.000000 0.707107 0.707107
vn 0.000000 0.707107 0.707107
vn 0.000000 0.707107 0.707107
vn 0.000000 0.707107 0.707107
vn 0.000000 -0.707107 -0.707107
vn 0.000000 -0.707107 -0.707107
vn 0.000000 -0.707107 -0.707107
vn 0.000000 -0.707107 -0.707107
vn -1.000000 0.000001 0.000000
vn -1.000000 0.000001 0.000000
vn -1.000000 0.000001 0.000000
vn -1.000000 0.000001 0.000000
s off
f 113/151/197 114/152/198 116/154/199 115/153/200
f 117/155/201 118/156/202 120/158/203 119/157/204
f 119/159/205 113/151/206 115/153/207 117/160/208
