# This file uses centimeters as units for non-parametric coordinates.

mtllib tableLP.mtl
g default
v 3.797646 2.244696 1.761487
v 3.811701 1.949852 1.761487
v 3.797616 2.244696 2.757358
v 3.811671 1.949852 2.757358
v 3.797636 2.244696 2.064849
v 3.811690 1.949852 2.064849
v 3.797624 2.244696 2.453998
v 3.811680 1.949852 2.453998
v 9.431814 2.269833 2.632118
v 3.797619 2.244696 2.632046
v 3.811675 1.949852 2.632046
v 9.445865 1.974989 2.632118
v 9.205345 2.268822 1.910593
v 3.797640 2.244696 1.910524
v 3.811695 1.949852 1.910524
v 9.219401 1.973978 1.910593
v 3.807776 2.030936 3.715149
v 3.806379 2.060191 3.753228
v 9.601487 2.087181 3.753302
v 9.561228 2.056324 3.711899
v 3.793743 2.325353 3.710101
v 3.794972 2.299523 3.753228
v 9.548919 2.351323 3.713636
v 9.590081 2.326561 3.753302
v 3.793831 2.325353 0.808744
v 3.795064 2.299523 0.765617
v 9.590166 2.326561 0.765691
v 9.549003 2.351323 0.805355
v 3.807864 2.030936 0.803696
v 3.806472 2.060191 0.765617
v 9.561318 2.056324 0.807092
v 9.601573 2.087182 0.765691
v 9.561514 2.270412 2.748597
v 9.594079 2.243343 2.757432
v 9.605511 2.004106 1.761561
v 9.572648 1.975554 1.766724
v 9.559461 2.270402 1.766724
v 9.594103 2.243343 1.761561
v 9.574692 1.975563 2.748597
v 9.605485 2.004106 2.757432
v 9.594203 2.241070 2.064923
v 9.568141 2.270441 2.060979
v 9.570881 2.270453 2.452815
v 9.594191 2.241069 2.452815
v 9.585039 1.975610 2.061523
v 9.605589 2.002241 2.064923
v 9.605576 2.002240 2.454072
v 9.587397 1.975620 2.460886
v 9.599535 2.128892 2.757432
v 9.595538 2.212041 3.753302
v 3.800429 2.185026 3.753228
v 9.599909 2.121397 2.064923
v 9.599895 2.121397 2.453445
v 3.800675 2.181810 0.765617
v 9.595777 2.208825 0.765691
v 9.599713 2.125677 1.761561
v 9.438926 2.120571 2.632118
v 9.213318 2.101579 1.910593
v 3.805070 2.088959 1.761487
v 3.805170 2.086728 1.910524
v 3.805276 2.084418 2.064849
v 3.805035 2.089237 2.453998
v 3.804925 2.091442 2.632046
v 3.804848 2.092994 2.757358
v 8.913724 -0.010025 0.853359
v 9.393754 -0.018231 0.853365
v 8.913714 -0.010025 1.216939
v 9.393742 -0.018231 1.216946
v 8.922500 2.208637 1.216939
v 9.402531 2.200431 1.216946
v 8.922511 2.208637 0.853359
v 9.402542 2.200431 0.853365
v 8.969808 0.020134 3.337383
v 9.449838 0.011928 3.337389
v 8.969798 0.020135 3.700963
v 9.449827 0.011928 3.700969
v 8.977989 2.088129 3.700963
v 9.458018 2.079923 3.700969
v 8.978000 2.088129 3.337383
v 9.458029 2.079923 3.337389
vt 0.227465 0.898570
vt 0.340500 0.912020
vt 0.340235 0.925059
vt 0.335187 0.927868
vt 0.226984 0.915851
vt 0.213212 0.897953
vt 0.212649 0.915406
vt 0.000529 0.214088
vt 0.642186 0.214567
vt 0.656853 0.227908
vt 0.000516 0.228356
vt 0.661910 0.571410
vt 0.005375 0.571106
vt 0.020142 0.557755
vt 0.661894 0.557131
vt 0.131165 0.894339
vt 0.148728 0.894763
vt 0.148032 0.913012
vt 0.130463 0.912324
vt 0.000579 0.131930
vt 0.616442 0.132207
vt 0.658080 0.149483
vt 0.000571 0.149505
vt 0.661838 0.492529
vt 0.004555 0.492590
vt 0.045871 0.475357
vt 0.661826 0.474945
vt 0.192967 0.896996
vt 0.192332 0.914698
vt 0.658322 0.195003
vt 0.000545 0.193815
vt 0.526982 0.733469
vt 0.571241 0.733489
vt 0.571254 0.747070
vt 0.527023 0.747053
vt 0.661874 0.536853
vt 0.004278 0.537263
vt 0.598813 0.715912
vt 0.598640 0.732905
vt 0.571235 0.719855
vt 0.572977 0.716304
vt 0.005518 0.458926
vt 0.661817 0.457965
vt 0.114205 0.893919
vt 0.113505 0.911650
vt 0.000586 0.114954
vt 0.656685 0.115780
vt 0.479332 0.714907
vt 0.479513 0.733965
vt 0.432262 0.733891
vt 0.432056 0.720477
vt 0.435817 0.717149
vt 0.000530 0.900002
vt 0.004788 0.916540
vt 0.000000 0.913405
vt 0.618660 0.716738
vt 0.622096 0.720090
vt 0.621871 0.733132
vt 0.000000 0.343315
vt 0.000087 0.337836
vt 0.655205 0.337897
vt 0.660222 0.343315
vt 0.661563 0.229284
vt 0.662357 0.680331
vt 0.662172 0.686069
vt 0.001835 0.686069
vt 0.006955 0.681284
vt 0.000499 0.571968
vt 0.661885 0.343313
vt 0.662080 0.349048
vt 0.006679 0.349160
vt 0.001548 0.344385
vt 0.000474 0.458490
vt 0.000291 0.005478
vt 0.000211 -0.000000
vt 0.660433 0.000793
vt 0.655409 0.006204
vt 0.661604 0.114826
vt 0.340789 0.897802
vt 1.000000 0.878082
vt 0.999782 0.892308
vt 0.339658 0.699471
vt 0.999168 0.699467
vt 0.999764 0.713314
vt 0.340253 0.713314
vt 0.735162 0.740587
vt 0.621619 0.747353
vt 0.735472 0.726360
vt 0.318684 0.726731
vt 0.432478 0.747750
vt 0.318945 0.740593
vt 0.524081 0.716355
vt 0.526939 0.719827
vt 0.000074 0.493053
vt 0.000000 0.537233
vt 0.661917 0.149882
vt 0.661996 0.194201
vt 0.735756 0.713314
vt 0.999577 0.905356
vt 0.339081 0.686071
vt 0.998592 0.686066
vt 0.318432 0.713314
vt 0.618134 0.750443
vt 0.598471 0.749488
vt 0.573246 0.750046
vt 0.524636 0.749998
vt 0.479652 0.748505
vt 0.436318 0.750794
vt 0.001078 0.886154
vt 0.005541 0.882995
vt 0.114830 0.878082
vt 0.131774 0.878755
vt 0.149311 0.879441
vt 0.193536 0.881124
vt 0.213731 0.881828
vt 0.227917 0.882264
vt 0.336610 0.894356
vt 0.826928 0.000003
vt 0.826928 0.161620
vt 0.826928 0.161615
vt 0.826928 0.000000
vt 0.662947 0.163959
vt 0.662947 0.002343
vt 0.662947 0.163963
vt 0.662947 0.002347
vt 0.318095 0.726958
vt 0.318764 0.781590
vt 0.277398 0.782090
vt 0.276712 0.727455
vt 0.042050 0.782066
vt 0.041363 0.727436
vt 0.000671 0.782569
vt 0.000000 0.727936
vt 0.041309 0.878074
vt 0.042037 0.823444
vt 0.277384 0.823466
vt 0.276656 0.878101
vt 0.041368 0.686069
vt 0.276715 0.686069
vn -0.998867 -0.047581 0.000000
vn -0.998867 -0.047581 0.000000
vn -0.998867 -0.047581 0.000000
vn -0.998867 -0.047581 0.000000
vn -0.998867 -0.047581 0.000000
vn -0.998867 -0.047581 0.000000
vn -0.998867 -0.047581 0.000000
vn -0.998867 -0.047581 0.000000
vn -0.998867 -0.047581 0.000000
vn 0.004395 -0.999990 0.000000
vn 0.004395 -0.999990 0.000000
vn 0.004425 -0.996938 0.078071
vn 0.004425 -0.997197 0.074688
vn -0.004425 0.997197 -0.074688
vn -0.004425 0.996936 -0.078100
vn -0.004395 0.999990 0.000000
vn -0.004395 0.999990 0.000000
vn -0.998867 -0.047581 0.000000
vn -0.998867 -0.047581 0.000000
vn -0.998867 -0.047581 0.000000
vn -0.998867 -0.047581 0.000000
vn 0.004395 -0.999990 0.000000
vn 0.004395 -0.999990 0.000000
vn 0.004395 -0.999990 0.000000
vn 0.004395 -0.999990 0.000000
vn -0.004395 0.999990 0.000000
vn -0.004395 0.999990 0.000000
vn -0.004395 0.999990 0.000000
vn -0.004395 0.999990 0.000000
vn -0.998867 -0.047581 0.000000
vn -0.998867 -0.047581 0.000000
vn -0.998867 -0.047581 0.000000
vn -0.998867 -0.047581 0.000000
vn 0.004395 -0.999990 0.000000
vn 0.004395 -0.999990 0.000000
vn 0.004395 -0.999990 0.000000
vn 0.004395 -0.999990 0.000000
vn 0.770930 0.038122 -0.635778
vn 0.950465 0.051125 0.306597
vn 0.911795 0.023379 0.409980
vn 0.664502 0.017061 -0.747092
vn -0.004395 0.999990 0.000000
vn -0.004395 0.999990 0.000000
vn -0.004395 0.999990 0.000000
vn -0.004395 0.999990 0.000000
vn -0.004395 0.999990 0.000000
vn -0.004395 0.999990 0.000000
vn -0.004395 0.999990 0.000000
vn -0.004395 0.999990 0.000000
vn -0.998867 -0.047581 0.000000
vn -0.998867 -0.047581 0.000000
vn -0.998867 -0.047581 0.000000
vn -0.998867 -0.047581 0.000000
vn 0.004395 -0.999990 0.000000
vn 0.004395 -0.999990 0.000000
vn 0.004395 -0.999990 0.000000
vn 0.004395 -0.999990 0.000000
vn 0.992698 0.119616 0.015566
vn 0.998460 0.055397 0.002960
vn 0.950465 0.051125 0.306597
vn 0.908032 0.078223 0.411532
vn 0.744815 0.091652 0.660946
vn -0.004395 0.999990 0.000000
vn -0.004395 0.999990 0.000000
vn -0.004395 0.996793 0.079902
vn -0.004395 0.997297 0.073343
vn -0.998867 -0.047581 0.000000
vn -0.998867 -0.047581 0.000000
vn -0.998867 -0.047581 0.000000
vn -0.998867 -0.047581 0.000000
vn 0.004395 -0.997297 -0.073343
vn 0.004395 -0.996793 -0.079902
vn 0.004395 -0.999990 0.000000
vn 0.004395 -0.999990 0.000000
vn 0.994571 0.102281 -0.019138
vn 0.999033 0.043856 -0.003205
vn 0.360361 0.018557 0.932628
vn 0.359918 0.040198 0.932118
vn 0.359918 0.040198 0.932118
vn -0.998867 -0.047581 0.000000
vn -0.998867 -0.047581 0.000000
vn -0.998867 -0.047581 0.000000
vn -0.998867 -0.047581 0.000000
vn -0.998867 -0.047581 0.000000
vn 0.616997 0.071878 -0.783676
vn 0.616997 0.071878 -0.783676
vn 0.618489 0.030582 -0.785198
vn 0.998460 0.055397 0.002960
vn 0.992698 0.119616 0.015566
vn 0.003723 -0.798491 0.601996
vn 0.003723 -0.798491 0.601996
vn 0.003723 -0.798491 0.601996
vn 0.003723 -0.798491 0.601996
vn 0.609541 -0.789534 0.071393
vn 0.609541 -0.789534 0.071393
vn 0.609541 -0.789534 0.071393
vn 0.609541 -0.789534 0.071393
vn -0.003998 0.852393 0.522887
vn -0.003998 0.852393 0.522887
vn -0.003998 0.852393 0.522887
vn -0.003998 0.852393 0.522887
vn 0.600830 0.796998 -0.061625
vn 0.600830 0.796998 -0.061625
vn 0.600830 0.796998 -0.061625
vn 0.600830 0.796998 -0.061625
vn -0.003998 0.852393 -0.522887
vn -0.003998 0.852393 -0.522887
vn -0.003998 0.852393 -0.522887
vn -0.003998 0.852393 -0.522887
vn 0.588461 0.806051 0.063211
vn 0.588461 0.806051 0.063211
vn 0.588461 0.806051 0.063211
vn 0.588461 0.806051 0.063211
vn 0.003723 -0.798491 -0.601996
vn 0.003723 -0.798491 -0.601996
vn 0.003723 -0.798491 -0.601996
vn 0.003723 -0.798491 -0.601996
vn 0.601211 -0.795898 -0.071355
vn 0.601211 -0.795898 -0.071355
vn 0.601211 -0.795898 -0.071355
vn 0.601211 -0.795898 -0.071355
vn 0.000000 0.000000 1.000000
vn 0.000000 0.000000 1.000000
vn 0.000000 0.000000 1.000000
vn 0.000000 0.000000 1.000000
vn -0.004425 0.996459 -0.083967
vn -0.004425 0.996459 -0.083967
vn -0.004425 0.996936 -0.078100
vn -0.004425 0.997197 -0.074688
vn 0.000000 0.000000 -1.000000
vn 0.000000 0.000000 -1.000000
vn 0.000000 0.000000 -1.000000
vn 0.000000 0.000000 -1.000000
vn 0.004425 -0.997197 0.074688
vn 0.004425 -0.996938 0.078071
vn 0.004425 -0.996459 0.083967
vn 0.004425 -0.996459 0.083967
vn 0.998867 0.047581 0.000000
vn 0.998867 0.047581 0.000000
vn 0.998867 0.047581 0.000000
vn 0.998867 0.047581 0.000000
vn 0.004395 -0.996449 -0.084088
vn 0.004395 -0.996449 -0.084088
vn 0.004395 -0.996793 -0.079902
vn 0.004395 -0.997297 -0.073343
vn 0.998867 0.047581 0.000000
vn 0.998867 0.047581 0.000000
vn 0.998867 0.047581 0.000000
vn 0.998867 0.047581 0.000000
vn -0.004395 0.997297 0.073343
vn -0.004395 0.996793 0.079902
vn -0.004395 0.996449 0.084088
vn -0.004395 0.996449 0.084088
vn 0.370784 0.035009 -0.928059
vn 0.635737 0.044653 -0.770613
vn 0.770930 0.038122 -0.635778
vn 0.999033 0.043856 -0.003205
vn 0.994571 0.102281 -0.019138
vn 0.765661 0.643239 -0.002625
vn 0.765661 0.643239 -0.002625
vn 0.765661 0.643239 -0.002625
vn 0.765661 0.643239 -0.002625
vn 0.808667 -0.588263 -0.002319
vn 0.808667 -0.588263 -0.002319
vn 0.808667 -0.588263 -0.002319
vn 0.808667 -0.588263 -0.002319
vn 0.998867 0.047581 0.000000
vn 0.998867 0.047581 0.000000
vn 0.998867 0.047581 0.000000
vn 0.998867 0.047581 0.000000
vn 0.000000 0.000000 1.000000
vn 0.000000 0.000000 1.000000
vn 0.000000 0.000000 1.000000
vn 0.000000 0.000000 1.000000
vn 0.635737 0.044653 -0.770613
vn 0.908032 0.078223 0.411532
vn 0.950465 0.051125 0.306597
vn 0.770930 0.038122 -0.635778
vn 0.000000 0.000000 -1.000000
vn 0.000000 0.000000 -1.000000
vn 0.000000 0.000000 -1.000000
vn 0.000000 0.000000 -1.000000
vn 0.998867 0.047581 0.000000
vn 0.998867 0.047581 0.000000
vn 0.998867 0.047581 0.000000
vn 0.998867 0.047581 0.000000
vn 0.998460 0.055397 0.002960
vn 0.618489 0.030582 -0.785198
vn 0.619043 -0.013796 -0.785236
vn 0.619043 -0.013796 -0.785236
vn 0.999935 -0.007019 -0.009003
vn 0.950465 0.051125 0.306597
vn 0.998460 0.055397 0.002960
vn 0.999935 -0.007019 -0.009003
vn 0.744788 0.002838 0.667295
vn 0.911795 0.023379 0.409980
vn 0.999033 0.043856 -0.003205
vn 0.770930 0.038122 -0.635778
vn 0.664502 0.017061 -0.747092
vn 0.371091 -0.000305 -0.928597
vn 0.999787 -0.014039 0.015138
vn 0.360361 0.018557 0.932628
vn 0.999033 0.043856 -0.003205
vn 0.999787 -0.014039 0.015138
vn 0.360751 -0.009858 0.932610
vn 0.360751 -0.009858 0.932610
vn -0.998867 -0.047581 0.000000
vn -0.998867 -0.047581 0.000000
vn -0.998867 -0.047581 0.000000
vn -0.998867 -0.047581 0.000000
vn -0.998867 -0.047581 0.000000
vn -0.998867 -0.047581 0.000000
vn -0.998867 -0.047581 0.000000
vn -0.998867 -0.047581 0.000000
vn -0.998867 -0.047581 0.000000
vn -0.998867 -0.047581 0.000000
vn -0.998867 -0.047581 0.000000
vn -0.998867 -0.047581 0.000000
vn -0.998867 -0.047581 0.000000
vn -0.998867 -0.047581 0.000000
vn -0.998867 -0.047581 0.000000
vn -0.998867 -0.047581 0.000000
vn -0.998867 -0.047581 0.000000
vn -0.998867 -0.047581 0.000000
vn -0.998867 -0.047581 0.000000
vn -0.998867 -0.047581 0.000000
vn -0.998867 -0.047581 0.000000
vn -0.998867 -0.047581 0.000000
vn -0.998867 -0.047581 0.000000
vn -0.998867 -0.047581 0.000000
vn -0.998867 -0.047581 0.000000
vn -0.998867 -0.047581 0.000000
vn -0.998867 -0.047581 0.000000
vn -0.998867 -0.047581 0.000000
vn -0.998867 -0.047581 0.000000
vn -0.998867 -0.047581 0.000000
vn -0.017030 -0.999855 0.000000
vn -0.017030 -0.999855 0.000000
vn -0.017030 -0.999855 0.000000
vn -0.017030 -0.999855 0.000000
vn 0.000000 0.000000 1.000000
vn 0.000000 0.000000 1.000000
vn 0.000000 0.000000 1.000000
vn 0.000000 0.000000 1.000000
vn 0.017030 0.999855 0.000000
vn 0.017030 0.999855 0.000000
vn 0.017030 0.999855 0.000000
vn 0.017030 0.999855 0.000000
vn 0.000000 0.000000 -1.000000
vn 0.000000 0.000000 -1.000000
vn 0.000000 0.000000 -1.000000
vn 0.000000 0.000000 -1.000000
vn 0.999992 -0.003876 0.000000
vn 0.999992 -0.003876 0.000000
vn 0.999992 -0.003876 0.000000
vn 0.999992 -0.003876 0.000000
vn -0.999992 0.003876 0.000000
vn -0.999992 0.003876 0.000000
vn -0.999992 0.003876 0.000000
vn -0.999992 0.003876 0.000000
vn -0.017030 -0.999855 0.000000
vn -0.017030 -0.999855 0.000000
vn -0.017030 -0.999855 0.000000
vn -0.017030 -0.999855 0.000000
vn 0.000000 0.000000 1.000000
vn 0.000000 0.000000 1.000000
vn 0.000000 0.000000 1.000000
vn 0.000000 0.000000 1.000000
vn 0.017030 0.999855 0.000000
vn 0.017030 0.999855 0.000000
vn 0.017030 0.999855 0.000000
vn 0.017030 0.999855 0.000000
vn 0.000000 0.000000 -1.000000
vn 0.000000 0.000000 -1.000000
vn 0.000000 0.000000 -1.000000
vn 0.000000 0.000000 -1.000000
vn 0.999992 -0.003876 0.000000
vn 0.999992 -0.003876 0.000000
vn 0.999992 -0.003876 0.000000
vn 0.999992 -0.003876 0.000000
vn -0.999992 0.003876 0.000000
vn -0.999992 0.003876 0.000000
vn -0.999992 0.003876 0.000000
vn -0.999992 0.003876 0.000000
s off
g tableLP:default1
usemtl initialShadingGroup
f 64/1/1 51/2/2 22/3/3 21/4/4 3/5/5
f 63/6/6 64/1/7 3/5/8 10/7/9
f 11/8/10 12/9/11 39/10/12 4/11/13
f 3/12/14 33/13/15 9/14/16 10/15/17
f 60/16/18 61/17/19 5/18/20 14/19/21
f 15/20/22 16/21/23 45/22/24 6/23/25
f 5/24/26 42/25/27 13/26/28 14/27/29
f 61/17/30 62/28/31 7/29/32 5/18/33
f 6/23/34 45/22/35 48/30/36 8/31/37
f 52/32/38 53/33/39 47/34/40 46/35/41
f 7/36/42 43/37/43 42/25/44 5/24/45
f 10/15/46 9/14/47 43/37/48 7/36/49
f 62/28/50 63/6/51 10/7/52 7/29/53
f 8/31/54 48/30/55 12/9/56 11/8/57
f 9/38/58 57/39/59 53/33/60 44/40/61 43/41/62
f 14/27/63 13/26/64 37/42/65 1/43/66
f 59/44/67 60/16/68 14/19/69 1/45/70
f 2/46/71 36/47/72 16/21/73 15/20/74
f 13/48/75 58/49/76 56/50/77 38/51/78 37/52/79
f 54/53/80 59/44/81 1/45/82 25/54/83 26/55/84
f 33/56/85 34/57/86 49/58/87 57/39/88 9/38/89
f 18/59/90 17/60/91 20/61/92 19/62/93
f 19/62/94 20/61/95 39/10/96 40/63/97
f 21/64/98 22/65/99 24/66/100 23/67/101
f 23/67/102 24/66/103 34/68/104 33/13/105
f 26/69/106 25/70/107 28/71/108 27/72/109
f 27/72/110 28/71/111 37/42/112 38/73/113
f 29/74/114 30/75/115 32/76/116 31/77/117
f 31/77/118 32/76/119 35/78/120 36/47/121
f 18/79/122 19/80/123 50/81/124 51/2/125
f 21/64/126 23/67/127 33/13/128 3/12/129
f 54/82/130 55/83/131 32/84/132 30/85/133
f 4/11/134 39/10/135 20/61/136 17/60/137
f 19/86/138 40/87/139 49/58/140 50/88/141
f 29/74/142 31/77/143 36/47/144 2/46/145
f 55/89/146 56/50/147 35/90/148 32/91/149
f 1/43/150 37/42/151 28/71/152 25/70/153
f 42/92/154 41/93/155 52/32/156 58/49/157 13/48/158
f 41/94/159 42/25/160 43/37/161 44/95/162
f 45/22/163 46/96/164 47/97/165 48/30/166
f 50/88/167 49/58/168 34/57/169 24/98/170
f 51/2/171 50/81/172 24/99/173 22/3/174
f 41/93/175 44/40/176 53/33/177 52/32/178
f 26/100/179 27/101/180 55/83/181 54/82/182
f 27/102/183 38/51/184 56/50/185 55/89/186
f 57/39/187 49/58/188 40/87/189 39/103/190 12/104/191
f 53/33/192 57/39/193 12/104/194 48/105/195 47/34/196
f 58/49/197 52/32/198 46/35/199 45/106/200 16/107/201
f 56/50/202 58/49/203 16/107/204 36/108/205 35/90/206
f 30/109/207 29/110/208 2/111/209 59/44/210 54/53/211
f 2/111/212 15/112/213 60/16/214 59/44/215
f 15/112/216 6/113/217 61/17/218 60/16/219
f 6/113/220 8/114/221 62/28/222 61/17/223
f 8/114/224 11/115/225 63/6/226 62/28/227
f 11/115/228 4/116/229 64/1/230 63/6/231
f 4/116/232 17/117/233 18/79/234 51/2/235 64/1/236
f 65/118/237 66/119/238 68/120/239 67/121/240
f 67/121/241 68/120/242 70/122/243 69/123/244
f 69/123/245 70/122/246 72/124/247 71/125/248
f 71/125/249 72/124/250 66/119/251 65/118/252
f 66/119/253 72/124/254 70/122/255 68/120/256
f 71/125/257 65/118/258 67/121/259 69/123/260
f 73/126/261 74/127/262 76/128/263 75/129/264
f 75/129/265 76/128/266 78/130/267 77/131/268
f 77/131/269 78/130/270 80/132/271 79/133/272
f 79/134/273 80/135/274 74/136/275 73/137/276
f 74/136/277 80/135/278 78/130/279 76/128/280
f 79/138/281 73/139/282 75/129/283 77/131/284
