# This file uses centimeters as units for non-parametric coordinates.

g default
v 3.435709 1.849710 7.748137
v 3.999203 1.849710 7.748148
v 3.435709 2.447257 7.748137
v 3.999203 2.447257 7.748148
v 3.435998 2.447257 -6.872757
v 3.999493 2.447257 -6.872746
v 3.435998 1.849710 -6.872757
v 3.999493 1.849710 -6.872746
vt 0.800302 0.639861
vt 0.800302 0.776567
vt 0.663596 0.776567
vt 0.663596 0.639861
vt 0.803708 0.639861
vt 0.940415 0.639861
vt 0.940415 0.776567
vt 0.803708 0.776567
vt 0.612999 0.779162
vt 0.745753 0.779162
vt 0.745753 0.911916
vt 0.612999 0.911916
vt 0.476779 0.765198
vt 0.609533 0.765198
vt 0.609533 0.897952
vt 0.476779 0.897952
vt 0.646324 0.001956
vt 0.646324 0.028794
vt 0.619486 0.028794
vt 0.619486 0.001956
vt 0.616485 0.028794
vt 0.589647 0.028794
vt 0.589647 0.001956
vt 0.616485 0.001956
vn -0.000020 0.000000 1.000000
vn -0.000020 0.000000 1.000000
vn -0.000020 0.000000 1.000000
vn -0.000020 0.000000 1.000000
vn 0.000000 1.000000 0.000000
vn 0.000000 1.000000 0.000000
vn 0.000000 1.000000 0.000000
vn 0.000000 1.000000 0.000000
vn 0.000020 0.000000 -1.000000
vn 0.000020 0.000000 -1.000000
vn 0.000020 0.000000 -1.000000
vn 0.000020 0.000000 -1.000000
vn 0.000000 -1.000000 0.000000
vn 0.000000 -1.000000 0.000000
vn 0.000000 -1.000000 0.000000
vn 0.000000 -1.000000 0.000000
vn 1.000000 0.000000 0.000020
vn 1.000000 0.000000 0.000020
vn 1.000000 0.000000 0.000020
vn 1.000000 0.000000 0.000020
vn -1.000000 0.000000 -0.000020
vn -1.000000 0.000000 -0.000020
vn -1.000000 0.000000 -0.000020
vn -1.000000 0.000000 -0.000020
s off
g pCube51
f 1/17/1 2/18/2 4/19/3 3/20/4
f 3/9/5 4/10/6 6/11/7 5/12/8
f 5/21/9 6/22/10 8/23/11 7/24/12
f 7/13/13 8/14/14 2/15/15 1/16/16
f 2/1/17 8/2/18 6/3/19 4/4/20
f 7/5/21 1/6/22 3/7/23 5/8/24
g default
v 4.081944 8.264954 9.546324
v 4.081944 8.264954 7.614433
v 4.081944 8.862501 9.546324
v 4.081944 8.862501 7.614433
v -4.174228 8.862501 9.546324
v -4.174228 8.862501 7.614433
v -4.174228 8.264954 9.546324
v -4.174228 8.264954 7.614433
vt 0.967412 0.454012
vt 0.967412 0.556740
vt 0.864683 0.556740
vt 0.864683 0.454012
vt 0.869873 0.779162
vt 0.972601 0.779162
vt 0.972601 0.881890
vt 0.869873 0.881890
vt 0.762193 0.266705
vt 0.946906 0.266705
vt 0.946906 0.451417
vt 0.762193 0.451417
vt 0.489752 0.392042
vt 0.674465 0.392042
vt 0.674465 0.576754
vt 0.489752 0.576754
vt 0.993514 0.620190
vt 0.993514 0.669883
vt 0.943821 0.669883
vt 0.943821 0.620190
vt 0.563701 0.329336
vt 0.613393 0.329336
vt 0.613393 0.379029
vt 0.563701 0.379029
vn 1.000000 0.000000 0.000000
vn 1.000000 0.000000 0.000000
vn 1.000000 0.000000 0.000000
vn 1.000000 0.000000 0.000000
vn 0.000000 1.000000 0.000000
vn 0.000000 1.000000 0.000000
vn 0.000000 1.000000 0.000000
vn 0.000000 1.000000 0.000000
vn -1.000000 0.000000 -0.000000
vn -1.000000 0.000000 -0.000000
vn -1.000000 0.000000 -0.000000
vn -1.000000 0.000000 -0.000000
vn 0.000000 -1.000000 0.000000
vn 0.000000 -1.000000 0.000000
vn 0.000000 -1.000000 0.000000
vn 0.000000 -1.000000 0.000000
vn 0.000000 0.000000 -1.000000
vn 0.000000 0.000000 -1.000000
vn 0.000000 0.000000 -1.000000
vn 0.000000 0.000000 -1.000000
vn 0.000000 0.000000 1.000000
vn 0.000000 0.000000 1.000000
vn 0.000000 0.000000 1.000000
vn 0.000000 0.000000 1.000000
s off
g pCube96
f 9/41/25 10/42/26 12/43/27 11/44/28
f 11/33/29 12/34/30 14/35/31 13/36/32
f 13/45/33 14/46/34 16/47/35 15/48/36
f 15/37/37 16/38/38 10/39/39 9/40/40
f 10/25/41 16/26/42 14/27/43 12/28/44
f 15/29/45 9/30/46 11/31/47 13/32/48
g default
v 3.292677 9.843704 8.841505
v 1.878092 10.577765 8.836406
v -0.054282 10.846479 8.834539
v -1.986666 10.577842 8.836405
v -3.401281 9.843837 8.841504
v -4.171042 8.829748 8.848548
v 4.062398 8.829585 8.848549
v 3.292677 9.848478 9.528694
v 1.878092 10.582539 9.523594
v -0.054282 10.851252 9.521728
v -1.986666 10.582615 9.523594
v -3.401281 9.848610 9.528693
v -4.171042 8.834522 9.535737
v 4.062398 8.834359 9.535738
v -0.054322 8.829667 8.848549
v -0.054322 8.834440 9.535737
vt 0.747657 0.019952
vt 0.747657 0.044814
vt 0.649325 0.044814
vt 0.649325 0.019952
vt 0.747657 0.001956
vt 0.649325 0.001956
vt 0.993166 0.337986
vt 0.968304 0.337986
vt 0.968304 0.239655
vt 0.993166 0.239655
vt 0.950307 0.337986
vt 0.950307 0.239655
vt 0.862202 0.225674
vt 0.804480 0.259000
vt 0.770448 0.134437
vt 0.734949 0.266919
vt 0.895528 0.167952
vt 0.895528 0.101300
vt 0.862202 0.043578
vt 0.805946 0.001954
vt 0.667001 0.384955
vt 0.619871 0.337825
vt 0.732113 0.273445
vt 0.602621 0.273445
vt 0.732113 0.410600
vt 0.619871 0.209064
vt 0.667001 0.161934
vt 0.732113 0.136289
vt 0.997736 0.183507
vt 0.997736 0.210284
vt 0.890630 0.210284
vt 0.890630 0.183507
vt 0.997736 0.237060
vt 0.890630 0.237060
vn 0.460609 0.887582 -0.006165
vn 0.460609 0.887582 -0.006165
vn 0.460609 0.887582 -0.006165
vn 0.460609 0.887582 -0.006165
vn 0.137736 0.990445 -0.006880
vn 0.137736 0.990445 -0.006880
vn 0.137736 0.990445 -0.006880
vn 0.137736 0.990445 -0.006880
vn -0.137697 0.990451 -0.006880
vn -0.137697 0.990451 -0.006880
vn -0.137697 0.990451 -0.006880
vn -0.137697 0.990451 -0.006880
vn -0.460574 0.887600 -0.006166
vn -0.460574 0.887600 -0.006166
vn -0.460574 0.887600 -0.006166
vn -0.460574 0.887600 -0.006166
vn -0.796527 0.604588 -0.004200
vn -0.796527 0.604588 -0.004200
vn -0.796527 0.604588 -0.004200
vn -0.796527 0.604588 -0.004200
vn 0.796551 0.604557 -0.004199
vn 0.796551 0.604557 -0.004199
vn 0.796551 0.604557 -0.004199
vn 0.796551 0.604557 -0.004199
vn 0.000000 -0.006946 -0.999976
vn 0.000000 -0.006946 -0.999976
vn 0.000000 -0.006946 -0.999976
vn 0.000000 -0.006946 -0.999976
vn 0.000000 -0.006946 -0.999976
vn 0.000000 -0.006946 -0.999976
vn 0.000000 -0.006946 -0.999976
vn 0.000000 -0.006946 -0.999976
vn -0.000000 0.006946 0.999976
vn -0.000000 0.006946 0.999976
vn -0.000000 0.006946 0.999976
vn -0.000000 0.006946 0.999976
vn -0.000000 0.006946 0.999976
vn -0.000000 0.006946 0.999976
vn -0.000000 0.006946 0.999976
vn -0.000000 0.006946 0.999976
s off
g pCylinder16
f 17/56/49 18/59/50 25/60/51 24/57/52
f 18/77/53 19/78/54 26/79/55 25/80/56
f 19/78/57 20/81/58 27/82/59 26/79/60
f 20/53/61 21/49/62 28/52/63 27/54/64
f 21/49/65 22/50/66 29/51/67 28/52/68
f 23/55/69 17/56/70 24/57/71 30/58/72
s 1
f 18/61/73 17/62/74 31/63/75
f 19/65/76 18/61/73 31/63/75
f 20/66/77 19/65/76 31/63/75
f 21/67/78 20/66/77 31/63/75
f 22/68/79 21/67/78 31/63/75
f 17/62/74 23/64/80 31/63/75
s 2
f 24/69/81 25/70/82 32/71/83
f 25/70/82 26/72/84 32/71/83
f 26/72/84 27/74/85 32/71/83
f 27/74/85 28/75/86 32/71/83
f 28/75/86 29/76/87 32/71/83
f 30/73/88 24/69/81 32/71/83
g default
v 3.529887 9.585312 -8.502590
v 2.020324 10.580447 -8.509503
v -0.041799 10.944721 -8.512033
v -2.103935 10.580528 -8.509503
v -3.613538 9.585453 -8.502591
v -4.211907 8.928781 -8.498030
v 4.128230 8.928616 -8.498029
v 3.529887 9.589948 -7.835157
v 2.020324 10.585083 -7.842070
v -0.041799 10.949358 -7.844600
v -2.103935 10.585165 -7.842070
v -3.613538 9.590090 -7.835158
v -4.211907 8.933417 -7.830596
v 4.128230 8.933252 -7.830595
v -0.041839 8.928698 -8.498029
v -0.041839 8.933335 -7.830596
vt 0.528884 0.113330
vt 0.488800 0.043903
vt 0.628035 0.042482
vt 0.476779 0.001953
vt 0.598311 0.153414
vt 0.678479 0.153414
vt 0.747906 0.113330
vt 0.779292 0.083011
vt 0.514187 0.104972
vt 0.570875 0.161659
vt 0.476779 0.239095
vt 0.591623 0.239095
vt 0.476779 0.082503
vt 0.570875 0.316531
vt 0.514187 0.373218
vt 0.476779 0.395687
vt 0.778945 0.779162
vt 0.808023 0.779162
vt 0.808023 0.895476
vt 0.778945 0.895476
vt 0.837102 0.779162
vt 0.837102 0.895476
vt 0.757658 0.779162
vt 0.757658 0.895476
vt 0.858389 0.779162
vt 0.858389 0.895476
vt 0.749220 0.779162
vt 0.749220 0.895476
vt 0.866826 0.779162
vt 0.866826 0.895476
vn 0.550398 0.834882 -0.005799
vn 0.550398 0.834882 -0.005799
vn 0.550398 0.834882 -0.005799
vn 0.550398 0.834882 -0.005799
vn 0.173961 0.984729 -0.006840
vn 0.173961 0.984729 -0.006840
vn 0.173961 0.984729 -0.006840
vn 0.173961 0.984729 -0.006840
vn -0.173922 0.984736 -0.006840
vn -0.173922 0.984736 -0.006840
vn -0.173922 0.984736 -0.006840
vn -0.173922 0.984736 -0.006840
vn -0.550365 0.834904 -0.005800
vn -0.550365 0.834904 -0.005800
vn -0.550365 0.834904 -0.005800
vn -0.550365 0.834904 -0.005800
vn -0.739167 0.673506 -0.004678
vn -0.739167 0.673506 -0.004678
vn -0.739167 0.673506 -0.004678
vn -0.739167 0.673506 -0.004678
vn 0.739193 0.673477 -0.004678
vn 0.739193 0.673477 -0.004678
vn 0.739193 0.673477 -0.004678
vn 0.739193 0.673477 -0.004678
vn 0.000000 -0.006946 -0.999976
vn 0.000000 -0.006946 -0.999976
vn 0.000000 -0.006946 -0.999976
vn 0.000000 -0.006946 -0.999976
vn 0.000000 -0.006946 -0.999976
vn 0.000000 -0.006946 -0.999976
vn 0.000000 -0.006946 -0.999976
vn 0.000000 -0.006946 -0.999976
vn -0.000000 0.006946 0.999976
vn -0.000000 0.006946 0.999976
vn -0.000000 0.006946 0.999976
vn -0.000000 0.006946 0.999976
vn -0.000000 0.006946 0.999976
vn -0.000000 0.006946 0.999976
vn -0.000000 0.006946 0.999976
vn -0.000000 0.006946 0.999976
s off
g pCylinder17
f 33/105/89 34/99/90 41/102/91 40/106/92
f 34/99/93 35/100/94 42/101/95 41/102/96
f 35/100/97 36/103/98 43/104/99 42/101/100
f 36/103/101 37/107/102 44/108/103 43/104/104
f 37/107/105 38/111/106 45/112/107 44/108/108
f 39/109/109 33/105/110 40/106/111 46/110/112
s 1
f 34/83/113 33/84/114 47/85/115
f 35/87/116 34/83/113 47/85/115
f 36/88/117 35/87/116 47/85/115
f 37/89/118 36/88/117 47/85/115
f 38/90/119 37/89/118 47/85/115
f 33/84/114 39/86/120 47/85/115
s 2
f 40/91/121 41/92/122 48/93/123
f 41/92/122 42/94/124 48/93/123
f 42/94/124 43/96/125 48/93/123
f 43/96/125 44/97/126 48/93/123
f 44/97/126 45/98/127 48/93/123
f 46/95/128 40/91/121 48/93/123
g default
v 4.136089 8.355324 -6.758321
v 4.136089 8.355324 -8.632831
v 4.136089 8.913242 -6.758321
v 4.136089 8.913242 -8.632831
v -4.239003 8.913242 -6.758321
v -4.239003 8.913242 -8.632831
v -4.239003 8.355324 -6.758321
v -4.239003 8.355324 -8.632831
vt 0.969849 0.884485
vt 0.969849 0.984461
vt 0.869873 0.984461
vt 0.869873 0.884485
vt 0.749220 0.898071
vt 0.849196 0.898071
vt 0.849196 0.998047
vt 0.749220 0.998047
vt 0.677866 0.454012
vt 0.861121 0.454012
vt 0.861121 0.637266
vt 0.677866 0.637266
vt 0.476779 0.579349
vt 0.660033 0.579349
vt 0.660033 0.762603
vt 0.476779 0.762603
vt 0.997606 0.340581
vt 0.997606 0.387879
vt 0.950307 0.387879
vt 0.950307 0.340581
vt 0.950307 0.390474
vt 0.997606 0.390474
vt 0.997606 0.437772
vt 0.950307 0.437772
vn 1.000000 0.000000 0.000000
vn 1.000000 0.000000 0.000000
vn 1.000000 0.000000 0.000000
vn 1.000000 0.000000 0.000000
vn 0.000000 1.000000 0.000000
vn 0.000000 1.000000 0.000000
vn 0.000000 1.000000 0.000000
vn 0.000000 1.000000 0.000000
vn -1.000000 0.000000 -0.000000
vn -1.000000 0.000000 -0.000000
vn -1.000000 0.000000 -0.000000
vn -1.000000 0.000000 -0.000000
vn 0.000000 -1.000000 0.000000
vn 0.000000 -1.000000 0.000000
vn 0.000000 -1.000000 0.000000
vn 0.000000 -1.000000 0.000000
vn 0.000000 0.000000 -1.000000
vn 0.000000 0.000000 -1.000000
vn 0.000000 0.000000 -1.000000
vn 0.000000 0.000000 -1.000000
vn 0.000000 0.000000 1.000000
vn 0.000000 0.000000 1.000000
vn 0.000000 0.000000 1.000000
vn 0.000000 0.000000 1.000000
s off
g pCube97
f 49/129/129 50/130/130 52/131/131 51/132/132
f 51/121/133 52/122/134 54/123/135 53/124/136
f 53/133/137 54/134/138 56/135/139 55/136/140
f 55/125/141 56/126/142 50/127/143 49/128/144
f 50/113/145 56/114/146 54/115/147 52/116/148
f 55/117/149 49/118/150 51/119/151 53/120/152
g default
v -3.790770 1.862933 7.290359
v 3.623345 1.862933 7.290505
v -3.790770 2.076955 7.290359
v 3.623345 2.076955 7.290505
v -3.790492 2.076955 -6.738260
v 3.623622 2.076955 -6.738114
v -3.790492 1.862933 -6.738260
v 3.623622 1.862933 -6.738114
vt 0.978555 0.084691
vt 0.978555 0.164831
vt 0.898414 0.164831
vt 0.898414 0.084691
vt 0.889333 0.001956
vt 0.969473 0.001956
vt 0.969473 0.082096
vt 0.889333 0.082096
vt 0.001953 0.001956
vt 0.473639 0.001956
vt 0.473639 0.473642
vt 0.001953 0.473642
vt 0.001953 0.476236
vt 0.473639 0.476236
vt 0.473639 0.947922
vt 0.001953 0.947922
vt 0.983919 0.559335
vt 0.983919 0.617595
vt 0.925658 0.617595
vt 0.925658 0.559335
vt 0.864683 0.559335
vt 0.922944 0.559335
vt 0.922944 0.617595
vt 0.864683 0.617595
vn -0.000020 0.000000 1.000000
vn -0.000020 0.000000 1.000000
vn -0.000020 0.000000 1.000000
vn -0.000020 0.000000 1.000000
vn 0.000000 1.000000 0.000000
vn 0.000000 1.000000 0.000000
vn 0.000000 1.000000 0.000000
vn 0.000000 1.000000 0.000000
vn 0.000020 0.000000 -1.000000
vn 0.000020 0.000000 -1.000000
vn 0.000020 0.000000 -1.000000
vn 0.000020 0.000000 -1.000000
vn 0.000000 -1.000000 0.000000
vn 0.000000 -1.000000 0.000000
vn 0.000000 -1.000000 0.000000
vn 0.000000 -1.000000 0.000000
vn 1.000000 0.000000 0.000020
vn 1.000000 0.000000 0.000020
vn 1.000000 0.000000 0.000020
vn 1.000000 0.000000 0.000020
vn -1.000000 0.000000 -0.000020
vn -1.000000 0.000000 -0.000020
vn -1.000000 0.000000 -0.000020
vn -1.000000 0.000000 -0.000020
s off
g pCube11
f 57/153/153 58/154/154 60/155/155 59/156/156
f 59/145/157 60/146/158 62/147/159 61/148/160
f 61/157/161 62/158/162 64/159/163 63/160/164
f 63/149/165 64/150/166 58/151/167 57/152/168
f 58/137/169 64/138/170 62/139/171 60/140/172
f 63/141/173 57/142/174 59/143/175 61/144/176
